
<svg xmlns="http://www.w3.org/2000/svg" viewBox="0 0 387.8 237.3">
<style type="text/css">
	path {
		fill:#dfdfdf!important;
	}
</style>
<path style="fill-rule:evenodd;clip-rule:evenodd;fill:#5D5E5E;" d="M356.1,58c-1.2-1.2-0.5-3.2-0.8-5.6c-0.1-0.6-0.6-1.3-0.6-1.7
	c0-1.7,1.2-3.7,1.1-5.4c0-0.5-0.2-1.2-0.6-1.7c0.1-0.8,1-0.9,1.4-1.4c0.5-0.5,0.6-1.1,1.1-1.7c-0.9-2.1-1.2-4.9-0.3-7.3
	c0.7,0,0.9,0.5,1.1-0.3c1.4,3.4,2.4,7.2,3.7,11c0.2,0.6,0.3,1.3,0.6,2c0.2,0.5,0.7,1,0.8,1.4c0.2,0.6,0,1.4,0.3,2
	c0.9,1.7,3.1,2.3,2.5,4.5c-1.7,0.1-2,1.6-2.8,2.5C361.1,56.7,358.8,57.5,356.1,58z"/>
<path style="fill-rule:evenodd;clip-rule:evenodd;fill:#5D5E5E;" d="M355.6,58.3c-1.9-0.1-3.2,0.6-4.8,0.8c-0.6-2.9-0.8-7.4-2.8-7.9
	c0.4-1.5-0.9-2.7-1.1-4c-0.1-0.5,0.3-1.2,0.3-1.7c0-0.4-0.2-1.4-0.3-1.7c-0.2-0.5-0.7-0.9-0.8-1.4c-0.1-0.3,0.1-0.8,0-1.1
	c-0.2-0.8-0.7-1.5-0.6-2.3c3.6-1.1,7.3-2.1,11.3-2.8c0.4,0.9-0.1,1,0,2.3c0.2,0.9,0.6,1,0.6,1.7c0,1.4-1.8,2.1-2.3,3.1
	c1.1,2.5-0.6,5-0.6,7.3c0,1.1,0.8,2.9,0.8,4.5C355.3,56.3,354.8,57.2,355.6,58.3z"/>
<path style="fill-rule:evenodd;clip-rule:evenodd;fill:#5D5E5E;" d="M352.5,76.3c0.1,0.6-0.3,1.5-0.9,1.5c-1.2,1.1-1.3-2.7-1.3-1.7
	c-3-0.7-5.5-1.9-8.2-2.8c-0.7-0.4-0.6-1.9-1.1-2.5c-0.3-0.4-0.8-0.2-1.4-0.6c-0.4-0.2-0.7-0.8-0.8-0.8c-0.6-0.1-2.3,0.5-3.7,0.8
	c-1.2,0.3-2.6,0.6-3.7,0.8c-6.8,1.5-15.7,3.4-22.6,4.2c0.4-0.4-0.3-0.9-0.3-1.4c0.1-0.8,0.7-0.9,1.4-1.7c0.5-0.5,0.8-1.2,1.1-1.7
	c0.4-0.5,1-0.9,1.4-1.4c0.2-0.2,0.1-0.4,0.3-0.6c0.1-0.1,0.6-0.7,0.8-1.1c0.1-1.2-0.8-1.2-0.6-2.5c-0.5-0.3-1.3-0.4-1.4-1.1
	c-0.3-1.2,1.5-1.2,2.5-1.7c0.8-0.4,3.2-1.4,5.4-1.1c0.7,0.1,1.1,0.5,1.7,0.6c1.3-0.4,2.2-1.1,4.2-0.8c1-0.8,1.8-1.7,2.5-2.8
	c0.4-0.4,1.1-0.6,1.7-0.8c0.1-1.3-0.2-2.1-0.6-2.8c-0.1-1,0.8-1,0.8-2c-1.2,0.8-0.7-1.3-1.7,0c-0.6-1.3,1.8-2.6,2.5-3.7
	c-0.3-0.9,0.2-1.4,0.6-2c0.3-0.4,0.5-0.8,0.8-1.4c1-1.8,2.7-3.5,4.8-4c2.4-0.5,5.7-0.9,7.9-2c0.7,0.4,0.1,0.8,0.3,1.4
	c0.1,0.4,0.5,0.5,0.6,0.8c0.1,0.3-0.1,0.8,0,1.1c0.3,1,1.1,1.5,1.1,3.1c0,0.7-0.4,1-0.3,1.7c0.2,1.5,1.5,3,1.1,4.8
	c0.7,0.8,0.4-0.8,1.1,0c0.8,1.7,1.1,3.9,1.4,6.5c0,0.3,0.6,0.5,0.6,0.8c-0.3,1.4-0.5,3.8-0.3,5.9c0.1,0.5,0.4,0.8,0.6,1.4
	c0.4,1.5,0.4,3.6,0.8,5.4c0.5,1.9,0.7,1.8-0.6,3.1L352.5,76.3z"/>
<path style="fill-rule:evenodd;clip-rule:evenodd;fill:#5D5E5E;" d="M360,74.1c0-0.3,0.9-0.6,0.9-0.6c0.9,0.1,0.9-0.7,2.3-0.5
	c-0.7,0.4-1,1.5-2,1.6C361.2,74.6,360.1,74.4,360,74.1z"/>
<path style="fill-rule:evenodd;clip-rule:evenodd;fill:#5D5E5E;" d="M360.2,75l-0.2,0.3c0.1,0.9-0.8,0.5-1.6,0.8
	c-0.1,0.1-0.2,0.5-0.3,0.6c-0.4,0.2-1,0.1-1.4,0.3c-0.3,0.2-0.6,0.7-0.8,0.8c-0.8,0.4-1.6,0.7-2.5,1.1c-0.8,0.4-1.4,1.3-2.5,0.8
	c-0.1-1.9,2.1-1.5,2.3-3.1c1.4-0.1,2.5-0.5,3.1-1.4c1.4,0.1,2.5-1.2,3.3-1.7c-0.1,0.5-1.5,1.5-0.1,1.3L360.2,75z"/>
<path style="fill-rule:evenodd;clip-rule:evenodd;fill:#5D5E5E;" d="M372.2,64.2c0,0.7-0.4,1.1-1.1,1.1c0.2-0.9-0.5-0.8-0.3-1.7
	c-1,0.6-1.6,1.6-2.3,2.5c-1,0-1.1-0.9-1.1-2c-0.3,0.2-0.4,0.5-0.6,0.8c-0.9-0.5-1.2-1.4-1.7-2.3c-5.3,0.5-9,2.5-14.4,2.8
	c0.2-2.5,0.3-3.4,0.3-6.2c3.5-0.7,8.5-1.8,11.9-2.5c1-0.2,2.2-1.3,2.5-2.5c0.3,0,0.5-0.1,0.6-0.3c0.8,0.6,1,2.6,2.5,1.7
	c-1,0.7-1.7,1.9-2.3,3.1c0.1,0.2,0.3,0.3,0.3,0.6c0.5,0.8,1,0.3,2,0.3c0.4,0.7,1.4,0.7,1.1,2c1.3,0.2,1.2,1.8,2.5,2"/>
<path style="fill-rule:evenodd;clip-rule:evenodd;fill:#5D5E5E;" d="M372.1,63.9c1,0.2,2.6-0.5,3.4-1.5l-0.5-0.4l-0.8,0.6l-0.1,0.4
	c0,0-1.1,0.5-1.5,0.3c-0.4-0.2-0.4,0.3-0.4,0.3L372.1,63.9"/>
<path style="fill-rule:evenodd;clip-rule:evenodd;fill:#5D5E5E;" d="M372,66.5c0.1,0.6-0.2,0.9-0.8,0.8
	C371.4,67.1,371.2,66.3,372,66.5z"/>
<path style="fill-rule:evenodd;clip-rule:evenodd;fill:#5D5E5E;" d="M364.9,63.1c0.6,1,0.7,1.6,0.3,2.5c0.5,0.6,0.7,1.6,0.6,2.8
	c-0.6,0.3-1.2,0.6-1.7,1.1c-0.2-1.4-1-3.9-1.4-5.9C363.3,63.4,364,63.2,364.9,63.1z"/>
<path style="fill-rule:evenodd;clip-rule:evenodd;fill:#5D5E5E;" d="M343.4,102.3c-0.2-4.1-3-8.3-2.5-12.4c0.8,0.2,0.7-0.4,1.4-0.3
	c0.2,0.8-0.6,1.2-0.6,2c0,1.3,1,2.5,2,3.1c0.1,1.1,0.4,1.6,1.1,2.5c0.7,0.9,0.7,1.5,2.3,1.4c-0.1,0.7-0.4,1.1-0.3,2
	c0.1,0.5,1.3-0.5,1.1,0.8C346.3,101.6,345.1,102.3,343.4,102.3z"/>
<path style="fill-rule:evenodd;clip-rule:evenodd;fill:#5D5E5E;" d="M351.3,66.2c3.7-0.8,7.2-1.7,10.7-2.5c0.5,2,1.3,3.6,1.4,5.9
	c-1.7-0.2-2.4,2-3.7,0.6c0,0.8,0.5,0.6,0,1.1c-1.4,0.3-2.6,0.4-3.7,1.1c-0.3,0.2-0.3,0.6-0.6,0.8c-0.2,0.1-0.7-0.1-0.8,0
	c-0.2,0.2-0.1,0.6-0.3,0.8c-0.2,0.2-0.7,0.1-0.8,0.3c-0.4,0.3-0.6,1-1.1,1.1c-0.3,0-0.5-0.1-0.6-0.3c-0.2-0.9,0.9-0.4,0.8-1.1
	C352.3,71.5,351.5,69.2,351.3,66.2z"/>
<path style="fill-rule:evenodd;clip-rule:evenodd;fill:#5D5E5E;" d="M344,74.1c-0.8,1.3-0.9,3.2-2,4.2c-0.1,0.9,0.6,0.5,0.6,1.4
	c0,0.4-0.6,0.9-0.6,1.1c0.2,0.8,0.5,1.2,1.1,1.7c0.2,0.2,0.1,0.4,0.3,0.6c0.3,0.3,0.5,0.4,0.8,0.6c0.5,0.3,1.1,1.2,2,1.4
	c-0.1,0.9-0.8,1.2-1.4,1.7c-0.5,0.5-0.6,1.4-1.1,2c-0.5,0-0.7,0.2-0.8,0.6c-0.6,0-1.1,0-1.7,0c-0.5,0.4-0.8,1-1.1,1.7
	c-10.7,2.3-21.7,4.3-32.5,6.5c-1-3.8-2-10.2-2.8-15.3c-0.3-1.9-1.1-4.2-0.8-5.1c0.1-0.4,0.4-0.7,0.8-1.1c0.2-0.2,0.6-0.1,0.8-0.3
	c0.5-0.4,1.5-1.8,2.5-2c0.1,0.7,0.4,1.1,0.3,2c6.4-1,13.9-2.5,20.9-4c0.6-0.1,1.1-0.4,1.7-0.6c1.1-0.2,2.6-0.3,4-0.6
	c1.4-0.3,2.5-1,3.4-0.8c0.8,0.1,1.2,1.3,2,0.8C341.1,72.3,341.5,74.3,344,74.1z"/>
<path style="fill-rule:evenodd;clip-rule:evenodd;fill:#5D5E5E;" d="M348,94.7c0-0.1,0-0.2,0-0.3c-0.6,0.2-1.9-0.3-2,0.3
	c-1.3-1.2-4.9-1.9-2.8-5.1c0.8-0.1,0.8-0.4,1.7-0.8c-0.2-1.3,0.7-1.4,0.8-2.3c0.5-0.1,0.5,0.3,0.8,0.3c-0.6-0.6,0-0.9,0.3-1.4
	c0-0.7-0.7-0.3-1.1-0.8c-0.6-0.9,0.4-0.5-0.6-0.8c-0.1,0-0.7-0.2-0.8-0.3c-0.3-0.2-0.1-0.6-0.3-0.8c-0.4-0.5-1.2-0.4-1.4-1.1
	c0-1.2,1.1-2,0-2.8c0.1-0.8,0.9-1.3,1.1-2c0.3-0.7-0.1-1.6,0.6-2c0.3,0.1,0.2,0.3,0,0.3c0.9,0.2,1-0.1,2.3,0.3
	c-0.1,0,0.8,0.2,0.8,0.3c0.1,0-0.1,0.5,0,0.6c0.1,0,0.5-0.3,0.8-0.3c0.3,0,1.4,0.7,2,0.8c0.3,2.5-1.7,2.8-1.1,5.6
	c0.9,0.1,1-0.5,2-0.3c0.7,1,0.1,2.5,0,3.7c-0.1,1.1,0.5,2.3-0.3,2.8c0.4,0.1,0.7,0.2,0.3,1.1c-0.1,0.1-0.6,0.4-0.8,0.8
	c-0.4,0.9,0,2-1.1,2.3c0.2,1.2,0,1,0,2.3c-0.2-0.1-0.3-0.3-0.6-0.3"/>
<path style="fill-rule:evenodd;clip-rule:evenodd;fill:#5D5E5E;" d="M333,100.4C333.7,99.5,334.1,101.4,333,100.4L333,100.4z"/>
<path style="fill-rule:evenodd;clip-rule:evenodd;fill:#5D5E5E;" d="M336.7,102.6c-0.3,0-0.2-0.3-0.3-0.6c-1,2.4,2.2,2.8,3.1,4.2
	c-0.8,0.2-3.5-0.1-3.7-1.4c-0.3,0-0.2,0.5-0.3,0.8c-0.7-0.2-0.9-1-1.4-1.4c-0.7-0.1-0.9,0.4-0.8,1.1c-1.5-1.4,1-3.2,0.8-5.1
	c-0.3-1-1.1-0.2-1.7-0.3c-0.6-0.1-0.8-0.7-1.4-0.8c-0.5-0.1-1,0.4-1.4,0c0.2-1.4-0.6-1.9-2-1.7c-0.4-0.8-1.2-1-1.2-2.1
	c-0.3-0.2-1.2-0.4-1.7-0.4c-0.5,0-1.1-0.3-1.3,0.1c-0.2,0.4-0.9,0.3-1.1,0.6c-0.2,0.3-0.7,1.3-1.1,1.2c-0.4-0.1-1.2-0.6-1.4-0.6
	c-0.2,0-0.3,0.1-0.5,0.6c-0.2,0.4-0.6,1.1-1.1,1.2c-0.5,0-0.8,0.2-0.9,0.5c-0.1,0.3-0.4,0.9-0.7,1.2c-0.3,0.3-0.8,0.4-1.1,1.1
	l-0.8-4.3l12.7-2.4c1.7-0.3,4.6-1,6.8-1.4c1.5-0.3,4.1-1.2,6.2-1.4c-0.2,0.8,0.4,0.7,0.3,1.4l0,0.2c1,3.2,1.7,6.9,2.8,10
	c1.3-0.3,3.5-1.4,4.5-0.3c-0.5,1.1-1.2,2-1.4,3.4c-1.3,0.1-1.7,1.1-3.1,1.1c0.1-0.4,0.4-0.7,0.6-1.1c-0.1-0.3-1.3-0.7-1.1-0.3
	c-0.8,0.1,0.3-0.7,0.3-0.8c0-0.3-1-0.6-0.6-1.4c-0.5-0.1-0.4,0.7-0.6,0.8c-0.1,0.1-0.8-1.1-0.8,0.3c-0.5-0.3-0.8-0.7-1.4-0.8
	c-0.2-0.9,0.5-0.8,0.3-1.7c0.9,0.3,0.7,0.1,1.4-0.3c0-0.6-1-0.1-1.4-0.3c0.1-0.8-1.1-1.7,0-2c0-0.5-1-0.2-1.1-0.6
	c-0.2-0.4,0.6-1,0.3-1.7c-0.1-0.3-0.6-0.3-0.6,0c-0.2-1.7-0.2-2.3,2-2.8c-0.9-0.4-1.1-0.6-0.5-1.4l0-0.3c-0.4-0.5-1.1,0.1-1.7,0.3
	c-0.1,0.7,0.5,0.6,0.3,1.4c-0.5,0.1-0.5-0.2-0.6-0.6c-0.8,0.5-0.4,1.2-1.4,1.1c0,0.8,0.5,0.6,0,1.1c-0.2-0.1-0.5-0.3-0.8-0.3
	c0.3,0.3,0.2,0.6-0.3,0.6c-0.1,0.9,0.7,0.8,1.1,1.1c-0.5,1.7,0.4,3.2,0.6,5.1"/>
<path style="fill-rule:evenodd;clip-rule:evenodd;fill:#5D5E5E;" d="M315.8,100.7c1.1-0.3,1.4-1.4,2-2.3c0.9,0,1.8-0.4,2-1.7
	c0.5,0.1,0.7,0.6,1.4,0.6c0.8,0,0.9-1,1.4-1.4c0.4-0.3,1.3,0,1.1-0.8c0.5,0.5,1.7,0.2,2.3,0.6c0.1,0.1-0.1,0.5,0,0.6
	c0.1,0.1,0.5-0.1,0.6,0c0.2,0.3,0.2,0.7,0.3,0.8c0.3,0.6,0.5,0.9,0.3,2c-1.6-0.1-2.7-1.9-4-1.4c-0.7,0.9-0.3,2.2-0.6,3.1
	c0,0.2-0.5,0.5-0.6,0.6c-0.1,0.2,0.1,0.7,0,0.8c-0.3,0.5-1.8,0.1-1.4,1.7c-2.8-0.4-1.4,3.3-2.8,4.2c-1.2,0.2-1.5-1.7-2.5-0.8
	c-0.6,0.6-0.1,1.3-0.3,2c-0.2,0.6-0.9,1.4-1.1,2c-0.2,0.4,0.1,1,0,1.4c-0.4,1.1-1.4,1.7-1.7,3.1c-0.1,0.8,0.4,1.7,0,2.5
	c-1.6-0.1-1.8,1.2-3.4,1.1c-0.4,0.2-0.5,0.6-0.6,1.1c-1.1-0.1-2.1,1.2-3.1,0.3c-0.6,0.4-0.9,1.1-1.7,1.4c-1.3-0.4-2.7-0.9-2.8-2.5
	c-2,0-2.7-1.2-4-2.8c-0.6-0.8-1.6-1.9-1.7-2.3c-0.2-0.7,0.5-1.6,0-2.3c1.9,0.4,1.1-1.9,2.5-2c-0.6-1-0.2-3.1,0.3-4
	c0.9-0.1,0.8,0.7,1.1,1.1c1.3-0.9,0.3-2.5,0.8-3.7c0.3-0.7,1.8-0.5,1.1-1.7c0.4,0,1.1-0.1,1.1,0.3c0.7-0.3,1.1-1,1.7-1.7
	c0.4-0.5,1.2-1.1,1.4-1.7c0.1-0.4,0.1-1.1,0.2-1.6c0.1-0.6-0.1-2,0.1-2.6c1-3.6-0.2-4.9,0.2-5.3c0.4,1.7,1.1,7,1.5,8.3
	c2.6-0.2,4.7-0.9,7.3-1.1c0.4,1.5,0.6,3.2,0.8,4.8c0.3-0.1,0.5-0.2,0.6-0.6V100.7z"/>
<path style="fill-rule:evenodd;clip-rule:evenodd;fill:#5D5E5E;" d="M248.5,134.8c1-2.6-1.3-5,1.1-5.9c1.4,0.1,2.5,1.7,4,0.8
	c0.3-1.4-0.9-1.3-0.6-2.8c1-0.2,1.5-0.8,2.5-0.8c0.6-1-0.4-1-0.3-2.3c0.3-0.6,2-1.1,1.4-1.7c0.5-0.3,1.4-0.3,1.7,0.3
	c1.1-0.4,0.4-0.7,1.4-1.1c1.1,0.1,2.1,0.3,2.5,1.1c0.8-0.4,0.8-1.6,1.7-2c0.7,0.3,1.6,0.5,2,1.1c0.7-0.7,0.6-2.2,1.4-2.8
	c0.9-0.9,0.5,1,1.7,0.6c0.3,0.8,1.5,0,2,0c0.2-0.6-0.3-1.9,0.3-2c0-0.9,1.1-0.5,1.4-1.1c-0.2-1.5,1-1.7,1.4-2.5
	c0.1-0.7-0.5-0.6-0.3-1.4c0.4-0.8,1.3,0.3,1.4,0.3c1-0.2,1.2-1.6,2.8-1.4c0.1-1.2-0.4-1.8-0.6-2.8c0.3-0.6,0.9,0,1.4,0
	c0.6,0,0.9-0.5,1.4-0.3c1.2,0.4,1.5,1.9,2.3,2.5c1.6-0.2,2.7,0.1,3.4,0.8c0.9,0.2,0.9-0.4,1.4-0.6c1.2-0.1,1.2,0.9,2.3,0.3
	c0.9-0.1,1.1-1,1.7-1.4c0.7,1,1.7,1.7,2.8,2.3c0,0.9,0.7,1.8,0,2.5c1.6,1.8,2.6,4.2,4.8,5.4c0.5-0.1,0.6,0.3,0.3,0.3
	c-0.8,2.2-3.4,2.8-4.5,5.1c-0.5,0.9-0.5,1.1-1.4,2c-0.3,0.3-0.8,1.1-0.8,1.1c-0.2,0.1-1,0.1-1.4,0.3c-0.1,0.1-0.2,0.5-0.3,0.6
	c-0.2,0.1-0.4-0.1-0.6,0c-0.6,0.3-1.2,1-1.7,1.1c-0.8,0.2-2.8,0.1-4.2,0.3c-0.6,0.1-2.5,0.5-3.4,0.6c-1.2,0.1-2.3-0.1-3.4,0
	c-1.5,0.2-3.5,0.7-5.6,0.8c-1.1,0.1-2.2-0.1-3.4,0c-4.2,0.3-8.5,1.6-12.1,0.8c-0.2,1,0.4,1.1,0.3,2c-2.8,0.1-5.2,0.6-8.2,0.6"/>
<path style="fill-rule:evenodd;clip-rule:evenodd;fill:#5D5E5E;" d="M305.6,88.8c-0.4,0.3-0.8,0.7-1.1,1.1c1.6,0.8,0.5,3.4,0.3,6.2
	c-0.1,0.9,0.1,1.8,0,2.3c-0.5,1.7-2.2,2.3-2.5,3.4c-0.6-0.5-1.5,0.1-1.7-0.3c-0.5,0.1,0.2,0.7-0.3,1.4c-0.1,0.1-0.8,0.2-0.8,0.3
	c-0.3,0.5,0.4,1.7-0.6,1.7c-0.1,0.9,1,0.7,0.3,1.4c-0.8,0.2-0.6-0.6-1.1-0.6c-0.7,0.5-1.4,1.2-1.4,2.5c0,0.5,0.4,0.9,0.3,1.4
	c-0.2,0.5-0.3,0.4-0.6,0.8c-0.2,0.3-0.1,0.9-0.3,1.1c-0.2,0.3-0.6-0.4-0.8-0.3c0,0,0.5,0.6,0,0.6c-1.3-0.1-1-1.1-2.5-1.4
	c-0.1-0.5-0.6-0.7-0.6-1.4c-1.1,0.2-1.7,0.9-2.3,1.7c-1,0.2-1.4-0.3-2-0.6c-0.7,0.1-0.9,0.8-1.7,0.8c-0.7-0.9-1.7-1.4-3.1-0.8
	c-0.4-0.8-1.4-1.1-1.4-2.3c-1.5-0.6-2.8-0.2-4-0.6c-0.5-8.2-1.9-15.6-2.5-23.7c2.4-0.2,4.6-0.5,6.5-0.8c0.7-0.1,1.5-0.6,2.3-0.6
	c0,0,0,0.5,0,0.6c0,0,0.8-0.3,1.1-0.3c0.9,0.2,1.9,0.9,2.8,1.1c-0.1,0.4-0.5,0.4-0.6,0.8c0.9-0.1,2,0,1.4-0.3
	c0.8-0.7,1.4,0.3,2.3,0.3c1.3-0.1,2.1-1.2,3.1-1.7c1.6,0.7,2.5-0.4,3.4-1.4c0.4-0.5,0.7-1,1.1-1.4c0.8-0.7,1.8-1,2.5-1.4
	c0.9-0.5,1.5-1.3,2.5-1.4C304,81.3,304.7,85.1,305.6,88.8z"/>
<path style="fill-rule:evenodd;clip-rule:evenodd;fill:#5D5E5E;" d="M255.6,53.2l0.9-0.8c0,0.3-0.8,1.4-0.1,1.4
	c-0.1,0.3-0.9,0.6-1.1,0.8c-0.2,0.8-0.8,1.7-1.1,1.6c-0.2-0.2-0.3-0.5-0.2-0.8c0.1-0.3,0.2-0.9,0.4-1.1L255.6,53.2z"/>
<path style="fill-rule:evenodd;clip-rule:evenodd;fill:#5D5E5E;" d="M287.3,75.1c0.4,0.3,0.8-1.5,0.9-2c-0.1-0.3-0.5,0-0.8,0.2
	C287.2,73.5,287,74.9,287.3,75.1z"/>
<path style="fill-rule:evenodd;clip-rule:evenodd;fill:#5D5E5E;" d="M288.6,74.2c0.4-0.5,1,0.4,1.5,0.8c-0.2,1-3.1,2.2-2.5,1.1
	C287.9,75.4,288.2,74.7,288.6,74.2z"/>
<path style="fill-rule:evenodd;clip-rule:evenodd;fill:#5D5E5E;" d="M245.4,36.1l0.6-0.7c0.6-0.7,1.4-1.2,1.7-2.3v-0.6
	c-1.7,0.4-3.1,1.2-3.4,3.1c0.9,0.3,0.9-0.1,1.1-0.6c0,0.1,0,0.2,0,0.3L245.4,36.1z"/>
<path style="fill-rule:evenodd;clip-rule:evenodd;fill:#5D5E5E;" d="M258.7,46.7c-0.1-0.2-0.3-0.3-0.3-0.6c-1.6-0.3-1.2,1.4-2.5,1.4
	c0-0.5,0-0.9,0-1.4c-0.9,0.4-0.9,1.7-1.4,2.5c-0.8,1.2-1.5,3.4-2.3,5.1c-1-0.2-0.4-1.4-0.3-2c0.2-0.5-1.3-0.5-1.1,0
	c-0.3-1.7,0.7-4.1-2.3-4c0.1-0.7,0-1.1-0.3-1.4c-0.8,0.4-1.7-0.5-2.5-0.6c-0.7-0.1-1.7,0.4-2.8,0c-0.1,0-0.5-0.5-0.6-0.6
	c-1.9-0.6-4.9-0.8-7.3-1.4c-0.1-1-0.7-1.6-1.7-1.7c0.2-0.8,1.4-0.7,2-1.1c0.7-0.4,0.9-1.3,1.7-1.7c2.6,0.4,3-1.3,4.8-1.7
	c0.4-0.7,1-1.3,1.4-2c1.7,0.1,1.6,2.1,2,3.7c0.9,0.1,0.1-1.4,1.1-1.1c0.1,0.2-0.1,0.3-0.3,0.3c0.8,0.3,1.1-0.8,2-0.8
	c2-0.2,3.5,1.9,4.2,3.4c2.2-0.2,3-0.2,4.8,0.3c0.9,0.2,0.8-0.8,1.1-1.1c0.2-0.2,0.8-0.3,1.1-0.6c0.7-0.6,0.5-0.7,2-1.1
	c0.8-0.2,1.6,0,2.8-0.3c1.1-0.3,1.9-1.4,3.1-1.1c-0.1,1,0,1.8,0.3,2.5c1.4,0.3,2.7-0.7,3.1,0.3c0.6-0.1,0.8-0.6,1.1-0.8
	c0.8,0.2,1.2,0.9,1.1,2c0.6,0.9,1.9,1.1,2.3,2.3c-1.5-0.1-3.4,0.2-4.5-0.3c-0.7,0-0.6,0.9-0.6,1.7c-0.8,0-1-0.6-1.4-1.1
	c-1.3-0.1-2.6-0.8-3.7-0.3c-0.7,0.2-0.8,1-1.4,1.4c-1.4,0.2-2.6-0.1-3.4,0.6c-0.5,0.4-0.3,1.2-1.1,1.7"/>
<path style="fill-rule:evenodd;clip-rule:evenodd;fill:#5D5E5E;" d="M265.2,53.5c0,0.7,0,1.3,0,2c0.1,0.8,0.4-0.4,0.8-0.3
	c0,0,0.1,0.4,0.3,0.3c0.4-0.3,0.8-1,0.8-1.7c0.1-0.6-0.5-1.6-0.3-2.3c0.4-1.1,0.9-1.7,2.3-1.7c0.4-1.2-1.1-0.6-0.8-1.7
	c0.1-1.2,1.1-1.5,1.7-2.3c0.7-0.2,0.9,0.7,1.7,0.8c1.1,0.3,2.6-0.2,2.8,1.1c2.5,0.2,4.5,1,5.6,2.5c0,0.8-0.8,0.7-0.8,1.4
	c0.2,0.8,1,1,1.4,1.7c0.1,1.8,1,4.2-0.8,5.1c0.2,1.1-0.3,1.3-0.3,2.3c-0.6,0.3-1.1,0.6-1.7,0.8c-0.3,2.3,0.1,3.4,2,3.7
	c0.7-1.2,2-1.7,2-3.7c1.3-0.2,1.5-1.5,3.1-1.4c2.5,1.9,2.1,6.8,4.2,9c-0.6,0.8-0.2,2.5-0.3,3.7c-0.9,0.3-0.2-0.9-1.1-0.6
	c-0.9,0.5-1.3,1.5-1.1,3.1c-0.6,0.3-1,0.7-1.4,1.1c0.5,2.7-1.3,3.2-1.4,5.4c-2.8,0.2-5.6,1.3-8.5,1.4c-0.8,0-1.7-0.3-2.5-0.3
	c-2.4,0-5.3,0.8-7.9,1.1c-1,0.1-2.1-0.1-3.1,0.3c-0.9,0.2-0.4-0.6,0-0.6c0.5-0.8,0.6-1.5,1.1-2.8c0.5-1.4,1.3-3.7,1.1-6.2
	c-0.1-1.7-1.1-3.1-0.8-4.5c-1.1-0.4-1.1-1.1-1.7-2.3c-0.1-0.3-0.5-0.5-0.6-0.8c-0.1-0.7,0.5-0.9,0.6-1.7c0.1-0.9-0.3-1.6-0.8-2.3
	c0.4-1.4,1.6-2.4,1.4-4.8c0-0.5-0.3-0.9-0.3-1.1c0.2-0.9,1.3-1.3,0.8-2.3c1-0.5,1.8-1,2.3-2"/>
<path style="fill-rule:evenodd;clip-rule:evenodd;fill:#5D5E5E;" d="M238.5,31.2c0,0.5,2.7-0.8,3.1-0.9c0.4-0.1,1.7-1.4,1.7-1.9
	c0-0.4-1.4,1.1-1.8,1.4C241.1,30.2,238.5,30.7,238.5,31.2z"/>
<path style="fill-rule:evenodd;clip-rule:evenodd;fill:#5D5E5E;" d="M262.7,120.7c-0.4,0-0.4,0.6-0.8,0.6c-0.6,0-0.7-0.5-1.1-0.6
	c-0.5-0.1-1.9,0.2-2,0.3c-0.1,0,0.1,0.8,0,0.8c-0.4,0.1-0.1-0.4-0.3-0.6c-0.4-0.3-1.9,0.8-2.5,0.3c-0.2-1.3,0.5-1.8,0.3-3.1
	c0.6-0.2,0.6-0.8,1.1-0.3c-0.5-1.3,1.2-2.7,1.4-4.2c0.2,0.1,0.3,0.3,0.6,0.3c-0.3-0.5-0.3-1.7-0.6-2.5c0-0.1-0.7-0.8-0.6-0.8
	c0.5-0.4-0.4,0.1-0.6-0.6c0.4-0.6,0-2.1,0.8-2.3c-1-7-1.3-14.7-2.3-21.7c-0.8,0.2,1.3,0.2,1.4,0.3c0,0-0.3,0.6-0.3,0.6
	c-0.1,0,1.1-0.5,1.7-0.8c0.5-0.3,0.8-0.8,1.4-1.1c0.3-0.2,0.5,0.3,0.6,0.3c0.3-0.1,0.1-0.3,0-0.3c2-0.6,4.6-0.5,7.1-0.8
	c1.4-0.2,4.1-0.6,6.2-0.8c0.3,0.4,0,0.9,0,0.8c0.1,0.4,0.5,0.4,0.6,0.8c0.1,0.5,0,1.1,0,1.7c0.2,2.3,0.8,4.9,1.1,7.6
	c0.2,2.2,0.3,4.5,0.6,6.8c0.2,2,0.8,4,0.8,5.6c0,0.9-0.4,1.3,0,2.3c-1.4-1,0.9,1.4-0.6,0.6c0.3,1,0.6,0,1.1,0.6
	c0.1,0.5-1.1,0.9-1.1,0.3c-0.4-0.8,0,0.7-0.3,0.8c-0.2,0.1-0.7-0.2-0.6-0.3c-0.3,0.3,0.3,0.7-0.3,0.8c-0.3,0.1-0.4-0.5-0.6-0.6
	c-0.4-0.1-1.1,1-1.1,0c-1,0.6-0.1,1.3-0.3,2.5c-1.6,0.1-0.8,3.2-2.5,2.3c-0.2,0.9-0.2,2.1-0.6,2.8c-0.8,0.5-1.3-0.6-1.1-0.6
	c-0.3,0-0.3,0.8-0.8,0.6c0-0.8-0.5-1.2-1.1-1.4c-1-0.3-0.2,1.1,0,0.6c-0.1,0.3-0.6,0.3-0.8,0.6c-0.3,0.4-0.2,1.2-0.3,1.4
	c-0.1,0.1-0.9,0.1-0.3,0.3c-0.2,0.7-1.3-0.1-1.4-0.6c-0.7-0.3-1,1.2-1.4,0.3c-0.4,0.1,0.2,0.5-0.3,0.6"/>
<path style="fill-rule:evenodd;clip-rule:evenodd;fill:#5D5E5E;" d="M255.3,125.8c-1.4,0-2.1,0.7-2.8,1.4c0,1,1.3,1.7,0.6,2.5
	c-1.9-1-4.7-1.8-5.4,0.8c-0.7,0-1.7-1-2-1.7c-0.1-0.4,0.3-0.8,0.3-1.4c0-1.1-1-1.7-0.6-2.5c-1.1-0.3-1.5-1.6-2.5-2.3
	c-0.2-0.1-0.7,0.1-0.8,0c-0.1-0.1,0.1-0.5,0-0.6c-0.3-0.2-1-0.1-1.4-0.3c-0.1-0.1-0.2-0.5-0.3-0.6c-1.7-0.8-2.1-2.1-0.8-4.2
	c0.3-0.5,0.2-1.6,0.6-2.8c-0.5-0.5-1.4-1.2-2.3-1.1c-0.7,0-1,0.6-1.7,0.6c-0.4-0.9-0.3-2.1-0.8-3.1c-0.6-1-1.4-1-2.3-1.7
	c-0.2-0.2-0.3-0.6-0.6-0.8c-0.3-0.3-1.7-1.3-2-1.7c-0.3-0.5-0.4-1.6-0.6-2.3c-0.2-0.8-0.6-1.3-0.6-2c0-1.5,1.2-1.1,0.6-3.1
	c0.3-0.8,1.3-1,2-1.4c-0.3-1.7,0.8-2.1,1.1-3.1c-0.1-1.8-1.8-1.8-1.1-3.7c1.7-0.4,3.1-1.1,4.5-1.7c0.3-2.1,1.8-2.9,1.4-4.8
	c-0.2-1-0.7-1.2-1.4-1.7c-0.6-0.3-0.5-1-1.1-1.7c-0.5-0.5-1.2,0-0.8-0.8c6.6,0,12.4-0.8,18.6-1.1c-0.3,1.5,0.3,2.1,0.8,3.1
	c0.1,0.2,0.5,0.5,0.6,0.6c0.1,0.2-0.1,0.6,0,0.8c0.4,0.9,1.2,1.8,1.4,2.8c0.3,1.3,0.1,3,0.3,4.5c0.4,4.2,1.1,9.1,1.4,13
	c0.1,1.1,0.3,2.4,0.3,3.4c0,0.7-0.4,0.8-0.6,1.4c-0.1,0.3,0.3,0.2,0.3,0.3c0,0.2-0.3,0.7-0.3,1.1c0.1,1,1.2,1.9,1.1,3.4
	c0,0.6-0.3,0.7-0.6,1.4c-0.4,1-0.4,1.2-0.8,2c-0.3,0.4-0.7,1.5-1.4,1.7c0.5,1.1-0.2,2-0.3,3.1c0,0.4,0.3,0.9,0.3,1.4
	C255.5,123.7,254.6,124.5,255.3,125.8z"/>
<path style="fill-rule:evenodd;clip-rule:evenodd;fill:#5D5E5E;" d="M250.2,48.7c0.4,1.3,0,1.7,0,3.1c0.1,0.4,0.7,0.2,1.1,0.3
	c-0.4,1.6,0.7,1.7,0.6,3.1c-0.3,0.2-0.6,0.3-1.1,0.3c0.1,1.8-1.6,2.7-0.8,4.2c0.7,0.3,0.8-0.3,1.1-0.6c0.8-0.7,1.1-2,2.3-2.8
	c1.8,0.7,0.2,2.1,0,3.4c-0.2,1.3-0.2,2.1,0.3,3.1c-0.8,0.2-0.8,1.1-1.1,1.7c-0.3,0.9,0.3,1.8,0.3,2.5c0,1-0.7,2.1-0.8,3.4
	c-0.1,0.8,0.2,2,0.3,2.5c0,0.3-0.3,0.6-0.3,0.6c0.1,0.3,0.4,0.8,0.6,1.1c0.5,0.9,0.7,1.9,0.6,4c-6.4,0.2-12.1,1.1-18.6,1.1
	c-0.9,0.3-0.4-0.9-0.8-1.1c-1,0-1.6-0.4-2.5-0.6c0-1.6-1.7-3.6-0.3-4.8c-0.1-0.8-0.9-0.8-1.1-1.4c-0.5-1.1-0.1-2.7-0.6-3.7
	c-0.4-0.8-0.8-1.6-1.4-2c-0.3-0.2-1.2-0.2-1.7-0.6c-0.9-0.7-1.3-2.1-2.3-2.8c-0.2-0.1-1-0.3-1.4-0.6c-0.3-0.2-0.6-0.7-0.8-0.8
	c-0.5-0.2-1.2,0-1.7-0.3c-0.6-0.4-0.5-1.3-1.4-1.1c0.7-2-0.5-4.6,0.8-6.2c-0.3-0.9-0.8-1.7-1.7-2c-0.4-0.6,0.3-0.5,0.6-1.1
	c0.2-0.3,0.1-1.2,0.3-1.4c0.1-0.1,0.7-0.2,0.8-0.3c0.5-0.3,1.3-1,2-1.4c0.2-2.2-0.3-3.7-0.3-5.6c0.6,0.1,0.9-0.2,0.8-0.8
	c2.4,1.8,5.8-1.6,8.2-2.3c0.5,0.8-0.6,1.9-0.6,3.1c2.6-0.6,5,0.6,5.9,2.5c1.7,0.2,2.9,0.3,4.5,0.6c0.4,0.1,1.1,0.2,1.4,0.3
	c0.8,0.2,1.5,1,2.3,1.1c1.3,0.3,2.8-0.1,4.2,0.3c0.1,0.5,0.8,0.5,0.6,1.4C249.1,48.1,249.6,48.5,250.2,48.7z"/>
<path style="fill-rule:evenodd;clip-rule:evenodd;fill:#5D5E5E;" d="M193.4,78.5c0.6-0.4,0.8-2,0.8-3c0-1-0.8-0.7-0.6-1.1
	c0.3-0.5-0.5-1.6-0.1-1.8c0.4-0.2,0.4-0.2,0.4-0.2s31.9-0.5,35.1-1.2c0,0-0.1,1.1,0.6,1.4c1.3-0.1,0,1.2,0,2
	c-0.1,1.3,0.9,2.3,1.1,3.7c1,0.1,1.4,0.7,2.5,0.6c0.4,0.7,0,0.5,0.3,1.4c0.2,0.4,1.4,0.7,1.7,1.4c0,0.1-0.4,0.4-0.3,0.6
	c0.2,0.2,0.7,0.1,0.8,0.3c0.2,0.1,0.4,0.4,0.6,0.6c1.3,1,1.4,1.8,0.3,3.7c-0.6,0.4,0.1,2-0.8,2c-0.5,0.9-0.9-0.8-1.1,0
	c0.7,1.1-2,1.2-3.1,1.4c0.2,0.8-0.8,1.8,0,2.3c0.3,0.7,1.1,0.7,0.8,2c0.3,1.1-1.1,0.4-0.8,1.4c0.2,0.9-0.3,1-0.3,1.7
	c-0.5,0-0.6,0.3-0.9,0.5c0,0-1,0.8-0.9,1.8c0.1,1-1.8-1.8-2.7-2c-0.2,0-2.5,0.5-3.1,0.6c-7.2,0.8-16.8,0.8-24.3,0.8
	c0.3-0.6-0.7-0.8-0.8-1.4c-0.1-0.4,0.3-1.2,0.3-1.7c-0.1-0.7-0.4-1.8-0.6-2.8c0-0.2,0.3-0.3,0.3-0.6c0,0-0.3-0.4-0.3-0.6
	c-0.2-1.1,0-0.9-0.6-1.4c-0.4-0.4,0.1-0.5-0.3-0.8c0.1,0.2-0.7,0.2-0.6-0.3c0.3-3.6-2.1-4.5-2-7.9c-0.7-0.5-1.6-1.7-0.6-1.7
	c-0.5-0.2-1.1,0.1-1.1-0.8c0-0.5,0.2-0.6,0.3-0.3"/>
<path style="fill-rule:evenodd;clip-rule:evenodd;fill:#5D5E5E;" d="M222,39.9c-0.3-0.4-0.1-0.4,0-0.8c-1.1,0.4,0.1,0.6,0,1.4
	c-0.8,0.1-0.4,1.3-1.4,1.1c-0.2,2.1,0.3,4.6,0,5.9c-1,0.6-2.1,0.8-2.8,1.7c-0.1,0.2,0,1-0.3,1.4c-0.1,0.2-0.7,0.3-0.6,0.8
	c0.1,1,1.2,1,1.7,1.7c0.1,0.8-0.4,1.1-0.6,2c-0.2,1.2,0.3,2.4,0.3,3.4c0,0.4-0.6,0.6-0.6,0.8c0.1,0.4,0.5,1,0,0.8
	c0.1,0.5,0.4-0.2,0.8,0c0.1,0-0.1,0.5,0,0.6c0.1,0.1,0.5-0.1,0.6,0c0.2,0.2,0.1,0.9,0,0.8c0.1,0,0.4-0.3,0.6-0.3
	c0.3,0,0.2,0.3,0,0.3c0.7,0.1,0.6-0.1,1.4,0c0.4,1-0.2,0.4,0.6,0.8c0.3,0.2,1.3,0.7,2,0.8c0.4,1,1.2,1.6,1.7,2.5
	c0.6,0.4,1.6,0.3,2,0.6c1.4,0.9,1.2,2.7,1.7,4.2c-11.1,0.8-22.7,1.2-34.7,1.1c-0.8-4.4,1.3-14.3-0.6-17.2c0-0.1-0.6-0.2-0.6-0.3
	c0-0.1,0.4-0.4,0.3-0.6c0,0-0.8,0.4-1.1,0.3c-0.2-0.1,0-1.6-0.8-1.4c0.2-0.4,0.5-0.4,1.1-1.1c0.1-0.1,0.5-0.5,0.6-0.6
	c0.1-0.2-0.1-0.7,0-0.8c0,0,0.8,0.4,0.8,0c0.1-0.3-0.5,0.1-0.6-0.3c-0.3-1,0.1-2.5-0.3-4c-0.2-0.9-1-1.3-1.1-2.8
	c-0.1-1.3-0.2-2.6-0.3-3.7c0-0.4,0.3-1.1,0.3-1.1c-0.1-0.6-0.5-1.2-0.6-1.7c-0.2-1.5-0.1-2.9,0-4c-0.3-0.4-0.5,0.1-0.8-0.6
	c-0.2-2-1.1-3.8-0.8-6.8c0.1-1.2,0.1-2.4-0.6-3.7c3.5-0.8,10.1,0.2,12.7-0.6c0.5-0.4,0-1.7,0-3.1c0.5,0,0.9,0,1.4,0
	c0.3-0.3,0,1.3,0,1.1c0,0.3,0.3,0.1,0.3,0c0.3,0.8,0.7,1.7,0.8,2.5c0.1,0.4,0.2,1.7,0.3,1.4c-0.4,1.1-0.7-0.3-1.4,0.3
	c0.2,0.2,0.5,0.2,0.8,0.3c-0.1,0,0.1,0.5,0.3,0.3c0.6-0.8,0.9,0.1,1.7,0.3c0.1,0,0.5-0.3,0.8-0.3c-0.1,0,2.2,0.4,2.5,0.6
	c0.1,0,0.5-0.1,0.6,0c0.3,0.3,0,0.8,0.6,0.8c0.4,0,1.8,0,1.7,0c0.8-0.3,0.5-1,1.4-1.1c0.7-0.1,1.8,0,2.5,0.3
	c0.2,0.1,1.1,0.5,1.1,0.6c0.3,0.3-0.1,1.5,0.8,0.8c0.1,1,0.9,1.3,1.4,2c0.9,0,0.2-1.7,1.4-1.4c0.5,0.1,0.4,0.8,0.8,1.1
	c0.4,0.2,1.8-0.2,1.4,1.1c1,0.5,2.8,0,3.4,0.3c0-0.5,0.9-1.2,1.7-1.7c1.1-0.2,0.6,1.1,1.4,1.1c1.3-0.3,2.4-0.4,3.7-0.3
	c0.6,0.1,1.5,1.3,2.5,0.6c-0.1,0.8-1.1,1.4-1.7,0.8c-0.6,0.2,0.3,0.4-0.3,0.8c-1.5,0.5-3.2,0.7-4,2c-0.4,0.2-0.6-0.4-0.8-0.3
	c0,0,0.3,0.4,0.3,0.6c0,0-0.9,0.6-1.1,0.8c-0.4,0.4-0.6,1.2-1.4,1.1c0.3,1.1-0.7,1.1-1.1,1.7c-0.1,0.1-0.2,0.8-0.3,0.8
	c-0.3,0.3-0.7-0.1-0.8,0c-0.1,0.1,0.4,0.4,0.3,0.6c0,0-1.1,0.6-1.4,0.8C223.3,38.9,223,39.8,222,39.9z"/>
<path style="fill-rule:evenodd;clip-rule:evenodd;fill:#5D5E5E;" d="M245.2,138.8c0.5,2.6-3.6,2-4.8,2c0.1-1.5,1.7-1.5,2-2.8
	c-0.4-0.4-0.5-1.4-0.8-1.7c-0.8-0.5-7.6,0.4-10.2,0.6c-7.3,0.4-17,0.6-23.2,0.8c-0.1-8.3-0.2-16.6-0.6-24.6
	c-0.4-0.5-1.2-0.7-1.7-1.1c0.1-1.7-1.6-1.6-1.7-3.1c0.4-0.5,0.7-1.2,1.4-1.4c0.3-2-1.3-1.5-2.3-1.7c0.1-0.7-0.8-0.5-1.1-0.8
	c-0.4-0.5-0.5-1.4-0.8-2c-0.7-1.1-2-2-2-3.4c5.3,0,11.7,0.1,17.5-0.3c1.1-0.1,3.2-0.2,5.1-0.3c1.8-0.1,3.6-0.8,4.8-0.6
	c1.2,0.3,1.7,1.6,2.5,2c-0.6,2-0.1,4.4,0.8,5.9c0.3,0.5,0.9,0.9,1.4,1.4c0.2,0.2,0.7,0.3,0.8,0.6c0.2,0.2,0.1,0.7,0.3,0.8
	c0.3,0.2,1.1,0.4,1.4,0.6c0.4,0.3,0.3,0.8,0.8,0.8c0.4,1.2,0.3,2.9,1.1,3.7c1,0.2,0.8-0.9,1.7-0.8c0.6,0.3,1.3,0.6,2,0.8
	c-0.2,2.5-2.4,4.6-0.8,6.5c0.5,0.6,0.8,1,1.4,1.4c0.4,0.3,1.4,0.2,1.4,1.1c1-0.3,1.7,0.6,2.3,1.1c0.2,0.2,0.7,0.4,0.8,0.6
	c0.2,0.3,0.1,0.9,0.3,1.4c0.1,0.3,1,0.8,0.6,1.7c0,0-0.5,0.3-0.6,0.3c0.3,1.1,1.3,1.6,1.4,2.5c0.7,0.5,1.4-0.3,2,0.6
	c-0.4,0.3,0.1,0.7,0,1.1c-0.1,0.4-0.4,0.6-0.6,1.1c-0.1,0.3,0.5,0.5,0,1.1c0.1-0.1-0.7-0.1-0.8,0c-0.6,0.3-0.9,1.5-1.1,0
	c-0.7,0.7-0.4,1.3-0.3,2.3c-1,0.1-0.4,0.5-0.6,0.8C245,138.2,244.7,138.7,245.2,138.8"/>
<path style="fill-rule:evenodd;clip-rule:evenodd;fill:#5D5E5E;" d="M241.8,145.8c-0.1,1.2,0.5,1.6,0.6,2.5
	c-0.2,0.9-0.8,1.5-1.7,1.7c0.2,0.5,0.9,0.8,0.3,1.4c-0.6,0.5-0.4,0-1.1,0c0.1,0.8-0.1,1-0.6,0.6c-0.2,1.3-0.2,2.8,0,3.4
	c-0.3,0.9-1.7,0.8-1.7,2c-0.6,0.5-0.4,0-1.1,0c0.2,0.8,0.4,1.5,0.6,2.3c-1-0.2-1.2,0.5-1.7,0.8c0.1,0.6,0.8-0.5,0.6,0.8
	c-0.3,0.5-0.4,1.3-1.1,1.4c-0.2,0.6,0.8,0.9-0.3,0.8c-0.3,0.5,0.6,0.7,0.6,0.8c0,0.1-0.5,0.6-0.6,0.6c0.4,1.2,1,0.6,1.1,1.4
	c0.1,0.3,0.3,0.8,0.3,0.8c0.1,0.6-0.5,0.4-0.6,0.8c0,0.2,0.5,0.7,0.3,1.1c-3.8-0.2-7.7,0.7-11.9,0.6c-0.6,0-1.4-0.3-2-0.3
	c-0.6,0-1.1,0.5-1.7,0.6c-2.2,0.3-4.4-0.3-6.5,0c0-1.6,0-3.2,0-4.8c-0.3,0-0.5-0.1-0.6-0.3c-0.5-0.3-1,0-1.4,0c0,0,0-0.5,0-0.6
	c-0.3-0.3-0.4,0.9-1.1,0.6c-1-5.9,0-12.6-0.6-18.6c-0.3-3-1.4-5.8-1.4-8.5c9.3-0.1,19.2-0.5,28.5-1.1c1.7-0.1,4.4-1.2,4.8,1.1
	c0,0.8-0.8,1.4-1.4,0.8c0.8,0.7-1,1.6-0.3,2.3c1.5,1.1,2.5-0.4,4.8,0c0.3,0.6-0.5,0.4-0.6,0.6c-0.1,0.2,0.2,0.6,0.3,0.6
	c-0.4,0.7-0.7,0.6-1.4,1.1c0.4,1.3-0.1,1.3-0.8,2L241.8,145.8z"/>
<path style="fill-rule:evenodd;clip-rule:evenodd;fill:#5D5E5E;" d="M189,21.6c0.1,0.8,0.2,1.3,0.3,2c0.1,0.9-0.1,1.7,0,3.4
	c0,0.3,0.3,0.4,0.3,0.8c-0.1,0.7,0.2,2.4,0.6,3.7c0.3,1,1,1.8,1.1,2.8c0.1,0.5-0.3,1-0.3,1.1c0,0.5,0.5,2.1,0.6,3.1
	c0,0.6-0.3,0.7-0.3,1.1c0,0.2,0.1,2.2,0.3,3.1c0.1,0.5,0.1,1.2,0.3,1.7c0.1,0.3,0.7,0.8,0.8,1.1c0.3,1.1,0.1,2.3,0.6,3.4
	c-16.2,0.7-32.7-0.6-48.3-1.4c0.9-9.2,1-19.2,2.3-28C160.4,21,175.3,20.6,189,21.6z"/>
<path style="fill-rule:evenodd;clip-rule:evenodd;fill:#5D5E5E;" d="M193.2,80.8c-1.5-1.8-3.8-2.1-4.8-3.1c-0.8,0.4-2,0.1-3.1,0.3
	c-0.8,0.1-1.2,0.2-1.7,0.6c-0.5-0.3-1.3-0.4-2-0.8c-0.6-0.3-1-1-1.4-1.1c-1.2-0.3-2.7,0.1-4,0c-10.4-0.5-23.4-0.8-33.3-1.7
	c0.2-9.5,1.4-18,2-27.1c15.4,1.2,31.4,1.8,48,1.7c0.2,1.8-1.5,1.7-1.7,3.1c0.5,0.5,0.6,1.3,1.1,1.7c0.4,0.5,1.3,0.4,1.4,1.1
	c0.2,5.2-0.4,11.1,0.3,15.8c0.1,1.4-0.8,0.2-1.1,0.8c-0.2,0.7,0.6,0.8,0.6,1.4c0,0.5-0.4,0.6,0,1.4c0.2,0.4,0.3,1.9,0,2.8
	c-0.1,0.4-1,1.3-0.3,1.9L193.2,80.8z"/>
<path style="fill-rule:evenodd;clip-rule:evenodd;fill:#5D5E5E;" d="M201.7,104.6c-15.4,0.8-31.5-0.1-46.6-0.6
	c-0.2-3.4,0.4-6,0.3-9.3c-4.3-0.6-9.5-0.5-13.8-1.1c0.6-6,0.6-12.5,1.4-18.4c8.3,1.1,19.4,0.9,28.5,1.7c2.6,0.2,5.7-0.5,7.9,0
	c1.2,0.2,2.2,1.2,3.4,1.7c0.3,0.1,0.5,0.3,0.6,0.6c0.8,0.3,0.8-0.7,1.4-0.8c0.7-0.2,2.5,0.4,3.4-0.3c0.8,0.1,0.4,0.8,1.1,1.1
	c0.6,0.3,1.5,0,2,0.3c0.5,0.3,1,1.1,1.4,1.4c0.6,0.4,1,0.8,1.7,0.8c-0.6,0.7,0.5,1.5,0.6,2c0,0.5-0.3,1.1,0.6,2
	c0.2,0.2,0.3,0.7,0.6,1.4c0.3,0.7,0.8,1.4,0.6,3.1c0,0.8,0.9,0.8,1.1,1.4c0.3,0.4-0.1,1.1,0,1.4c0.1,0.7,0.5,0.6,0.6,1.1
	c0.1,0.6-0.3,0.7-0.3,1.1c0,0.1,0.3,0.5,0.3,0.8c0,0.4,0,0.4,0,0.8c-0.1,1.4,0.5,2.8,1.1,4c0.1,0.1,0.1,0.6,0.3,0.8
	C200,102.4,201.6,103.3,201.7,104.6z"/>
<path style="fill-rule:evenodd;clip-rule:evenodd;fill:#5D5E5E;" d="M204.5,107.4c-0.1,0.2-0.4,0.9-0.6,1.4
	c-0.1,0.5,0.1,1.3-0.6,1.4c0.2,0.8,0.4-0.7,1.1-0.3c-0.1,0.6,0.2,0.9,0.8,0.8c-0.3,1.9,1.5,1.7,2,2.8c0,6.5,0.5,12.5,0.3,19.2
	c-18,0.8-36.3-0.1-53.9-0.6c0.4-9.4,0.8-18.8,1.4-28c9.1,0.9,19.2,0.3,28.8,1.1c3,0.2,6.4,0.1,9.3,0c3.3-0.1,6.4-0.8,8.5-0.3
	c1.1,0.2,0.9,0.3,1.7,1.1c0.8,0.8,1.3-1,1.4,0.3c0.5-0.1,0.5,0.2,0.6,0.6C203.9,106.7,204.7,107,204.5,107.4z"/>
<path style="fill-rule:evenodd;clip-rule:evenodd;fill:#5D5E5E;" d="M204.2,161.7c-0.9-0.2-0.4,0.9-1.1,0.8
	c-0.9,0.1-1.1-0.4-1.7-0.6c-1.3,0-1.9,1.4-2.8,0.3c-0.9,0.6-1.9,1.1-2.8,1.7c-0.9-0.3-1.6-0.9-2.3-1.4c-0.7-0.7-0.5,0.4-1.4,0.3
	c-0.1-0.7-0.9-0.6-1.1-1.1c-0.5,0.7-1.6,0.8-1.4,2.3c-0.9-0.2-0.4-0.8-0.3-1.4c-0.8-0.1-1.4,0.1-1.7,0.6c-0.7-0.5-1.1-1.2-2-1.4
	c-0.9-0.8-0.8,1.3-2.3,0.8c0.5-1.7-1.7-0.7-1.1-2.5c-1.2,0-2.4-0.1-2.8,0.6c-2-0.6-3.9-1.3-5.6-1.4c0.4-1.6-1-1.4-1.1-2.5
	c-0.6,1.3-0.9,0.6-1.7,0.6c-0.2,0-0.3,0.3-0.3,0.3c-1.2-0.2-1.7-1.7-2.8-2c0.1-5.9,0.3-11.5,0.6-17.2c-1.7-1.6-4.5-0.6-7.1-0.8
	c-4.3-0.4-10.9-0.9-15.5-1.1c0.3-1.8,0.3-2.8,0.5-4c19.8,1.1,40.5,1.3,61.6,1.1c-0.5,5.4,1.3,9.8,1.7,14.7c0.4,5.2-0.3,10.4,0,16.4
	C207.3,164,206.1,162.5,204.2,161.7z"/>
<path style="fill-rule:evenodd;clip-rule:evenodd;fill:#5D5E5E;" d="M72.6,9.7c4,0.3,8.9,1.6,13,2.3c6.7,1.1,13.8,2.3,20.9,3.4
	c8.5,1.3,17.5,2.3,26.3,3.1c2.9,0.3,5.8,0.7,8.8,0.8c1.7,0.1,3.5,0,5.1,0.3c-1.2,12-1.5,24.9-2.8,36.7c-11.9-1-24-2-35.9-3.7
	c-3.3-0.5-6.6-1.2-9.9-1.1c-0.8,0.8-0.7,2.5-0.8,4c-1.2,0-0.6-1.7-1.4-2c-1.5-0.3-0.9,1.5-2.3,1.4c-1.2-0.4-2.5-0.8-3.7-0.8
	c-0.6,0-0.9,0.5-1.4,0.6c-0.5,0.1-1.1-0.3-1.7-0.3c-0.9,0-1.2,0.3-2,0.6c-0.3-1.5,0-4.3-2.3-4.5c-0.6-0.6,0.2-1,0-2
	c-0.1-0.8-0.8-1.3-1.1-2.3c-0.4-1.3,0-3.1-0.8-4.2c-1.1-0.2-1.6,1-2.3,1.1c-1,0.2-0.8-0.1-2-0.6c-0.4-0.8,0.6-0.9,0.6-1.4
	c0-0.1-0.2-0.4-0.3-0.3c0.4-0.7,0.8-0.4,1.1-1.1c-0.6-2.8,1.1-4.5,1.7-6.8c0-0.9-1.6-0.3-2-0.8c0.7-0.8-0.2-0.1-0.6-0.6
	c-0.2-0.2-0.1-0.6-0.3-0.8c-0.4-0.6-0.4-0.1-0.3-0.8c0-0.2-0.5-0.7-0.6-0.8c-0.4-0.7-0.9-1.8-1.4-2.5c-0.3-0.5-0.8-0.7-1.1-1.1
	c-0.2-0.2-0.1-0.6-0.3-0.8c-0.2-0.3-0.6-0.6-0.6-1.1c0-0.5,0.3-0.6,0.3-1.1c-0.2-1.6-1-2.5-1.7-3.7C71.6,15.7,72.2,12.8,72.6,9.7z"
	/>
<path style="fill-rule:evenodd;clip-rule:evenodd;fill:#5D5E5E;" d="M143.8,56.6c-1.2,12-1.6,25-2.8,37c-16.7-1.2-32.9-2.9-48.3-5.4
	c1.4-8.5,2.6-18,4-27.4c0.2-1.4,0.6-2.8,0.8-4.2c0.2-1.8-0.1-3.7,1.1-4.8c1.8,0.2,6,0.7,9,1.1c9.7,1.3,20.6,2.6,30.8,3.4
	C140.2,56.4,142,56.7,143.8,56.6z"/>
<path style="fill-rule:evenodd;clip-rule:evenodd;fill:#5D5E5E;" d="M106.8,90.8c15.8,1.7,31.8,3.2,48.3,4.2
	c-0.8,12.3-1.1,25-2,37.3c-17.3-1.1-34.3-2.6-51.1-4.5c-0.1-1.4,0.1-3,0.3-4.5c1.3-10.1,2.8-21.5,4.2-31.6
	C106.5,91.2,106.4,90.8,106.8,90.8z"/>
<path style="fill-rule:evenodd;clip-rule:evenodd;fill:#5D5E5E;" d="M145.2,137.1c-0.4,3.5-0.3,7.2-0.6,10.7c-0.4,7-0.9,14-1.4,20.9
	c-0.2,3.4-0.4,6.7-1.1,9.9c-9.4-0.6-18.5-1.4-27.7-2.3c-1,0.4,0.7,1.8,0,2c-4-0.5-8.3-0.7-12.1-1.4c-0.8,1-0.4,3.2-1.1,4.2
	c-1.8-0.4-4.2-0.3-5.9-0.8c2.1-17.5,4.5-34.7,6.5-52.2c14.4,1.6,28.7,3.3,44.1,4L145.2,137.1z"/>
<path style="fill-rule:evenodd;clip-rule:evenodd;fill:#5D5E5E;" d="M52,162.5c0.1-0.7,1-0.5,0.8-1.4c0.3-0.3,1.3,0.4,1.7,0
	c0,0,0.5-1.3,0.6,0c0.4-0.2,0-1.5,0.3-1.7c0.2-0.1,0.8,0.3,0.8,0.3c-0.1-0.4-0.8-0.9-1.1-1.1c-0.3-0.3-0.5-0.7-1.1-0.8
	c0.4-1.2,0-1.9,0.3-2.8c0.1-0.7,1.3,0.4,1.4,0.3c0.2-0.1-0.6-0.6-0.6-0.6c-0.1-0.4,1.2-2,1.4-2.5c0.3-0.8,0-1.8,0.3-2.3
	c1-1.6,2.3-1,3.4-2.8c0-0.8-0.6-1.1-1.4-1.7c-0.1-2.9-2.3-5.1-0.3-7.1c-0.1-3.1,0.1-6.4,0.3-8.5c1.3-0.4,1.2,0.2,2.5,0.3
	c0.5,0.2-0.1,1.4,0.8,1.1c0.8,0.7,0.9-0.6,1.4-1.1c0.4-0.4,0.6-0.8,0.8-2.3c0.3-1.4,0.6-3.8,0.8-5.4c3.9,0.7,7.8,1.6,11.9,2.3
	c0.5,0.1,1-0.1,1.4,0c6.7,1.1,15.2,2.4,22.9,3.4c-2.4,17.3-4.3,35-6.8,52.2c-5.3-0.5-10.1-1.5-15.5-2c-0.2-0.1-0.3-0.7,0-0.6
	c-0.5-0.2-2.6-0.2-2-1.4c-0.6,0.7-1.3-0.2-2-0.6c-0.6-0.3-1.8-0.6-2-0.8c-0.1-0.1,0.4-0.5,0.3-0.6c-0.3-0.2-0.2,0.3-0.3,0.3
	c-0.4,0.1-0.1-0.2-0.3-0.3c-1.4-0.5-2.8-1.3-4-2c-1-0.6-2-1.1-2.8-2c-0.2-0.2-0.6,0.1-0.6-0.3c0,0.1,0.5-0.2,0.3-0.3
	c0,0-1.1,0.5-1.4,0c0,0,0.4-0.5,0.3-0.6c-0.3-0.1-0.7,0.3-1.4,0c-0.5-0.2-0.9-0.8-1.4-1.1c-0.3-0.2-0.6-0.1-0.8-0.3
	c-0.9-0.5-2.6-1.4-3.7-2.3c-0.2-0.1-0.6,0.1-0.6-0.3c0,0.1,0.5-0.2,0.3-0.3c-0.3-0.2-0.2,0.3-0.3,0.3c-0.3,0.1-1.8-1.1-2.3-1.4
	C53.7,163.5,52.7,163.2,52,162.5z"/>
<path style="fill-rule:evenodd;clip-rule:evenodd;fill:#5D5E5E;" d="M62.7,130.9c-1.1,0.1-0.8-1.3-1.7-1.4c-0.9,0-1.6-0.7-2.3,0
	c-0.7,0.1-0.6,0.8-0.6,1.4c0,0.4,0,0.7,0,1.1c-0.1,1-0.2,2.1-0.3,3.1c-0.1,0.9,0.4,1.7,0.3,2.5c-0.1,0.7-1.3,0.8-0.8,1.7
	c-5.9-8.3-12.7-18.5-19.2-28c-1-1.5-2.3-3.1-3.4-4.8c-0.4-0.7-0.8-1.3-1.4-2.3c-0.1-0.2-0.5-0.4-0.6-0.6c-0.1-0.2-0.1-0.6-0.3-0.8
	c-0.3-0.4-0.8-0.7-1.1-1.1c-0.2-0.3-0.1-0.6-0.3-0.8c-0.5-0.9-1.7-2.2-2.5-3.4c-1.3-2-2-2.3-1.4-4.8c0.1-0.5,0.5-0.9,0.6-1.4
	c0.3-1.2,0.3-2.7,0.6-3.7c1.6-6.6,3.6-13.4,5.1-20.1c12.9,3.2,26.3,5.9,39.8,8.5c-2.1,11.1-3.9,23-6.2,34.2c-0.7,3.5-1,7.2-1.7,10.7
	c-0.3,1.7-0.8,3.4-1.1,5.1C63.8,127.7,63.9,129.5,62.7,130.9z"/>
<path style="fill-rule:evenodd;clip-rule:evenodd;fill:#5D5E5E;" d="M73.4,76.1c6.7,1.1,13,2.4,20.1,3.1c-0.3,3.3-0.8,6.6-1.4,9.6
	c4.9,0.3,9.2,1.3,14.1,1.7c-1.7,12.2-3.1,24.8-4.8,37c-12.5-1.3-24.3-3.4-36.1-5.4C68,106.8,70.8,91.5,73.4,76.1z"/>
<path style="fill-rule:evenodd;clip-rule:evenodd;fill:#5D5E5E;" d="M53.8,72.1c0.4-3,1.1-5.1,1.6-7.7c0.5-2.7,0.9-5.4,1.4-8
	c0.2-0.9,0.8-1.5,1.1-2.3c0.3-0.7,0.2-1.7,0.4-2.4c-0.3-0.6-1.4-0.4-1.3-1.3c0-2.9,1.9-3.3,3.5-4.5C60,45,60.7,44.6,61.1,44
	c0.3-0.5,0.8-1.7,1.1-2.3c0.8-1.2,1.8-1.6,1.8-2.6c0-0.7-0.7-1.4-1.1-2c-0.4-0.6-0.6-0.7-1-1.5l0.3-0.6c-0.3-0.7,0-0.8-0.3-1.9
	c-0.1-0.3-0.1-1.3-0.1-1.6c0,0,0.3-0.3,0.3-0.5c0.3-0.8,0-2.2,0.1-3c0.5-3,1.8-5.8,2.2-9.2c0.3-2.1,1-3.3,1.1-4.8
	c0-0.4,0.2-1.3,0.3-1.4c0.1-0.2,0.4-1.7,0.4-1.7c0.3-1.5,0.1-1.5,0.7-2.4l5.2,1.1c-0.4,3.2-0.8,5.7-1.5,8.6c0.7,1.2,1.3,2.1,1.5,3.8
	c0.1,0.5-0.2,0.7-0.3,1.2c0,0.6,0.3,0.8,0.6,1.2c0.2,0.3,0.1,0.6,0.3,0.9c0.4,0.5,0.8,0.7,1.1,1.2c0.5,0.8,1,1.9,1.4,2.6
	c0.1,0.2,0.6,0.7,0.6,0.9c-0.1,0.7-0.2,0.3,0.3,0.9c0.2,0.2,0.1,0.7,0.3,0.9c0.4,0.5,1.4,0.1,0.7,0.9c0.4,0.6,1.9-0.4,1.9,0.5
	c-0.6,2.4-2.2,3.6-1.6,6.4c-0.4,0.8-0.7,0.4-1.1,1.2c0.1-0.2-0.1,0.6-0.1,0.7c0,0.6-0.3,0.6,0.1,1.5c1.2,0.5,1.4,0.7,2.4,0.5
	c0.7-0.1,0.8-1.1,1.9-0.9c0.8,1.1,0.2,2.6,0.7,4c0.3,1,0.9,1.3,1,2.2c0.2,1-0.5,1.5,0.2,2.2c2.8,0.3,1.9,2.3,2.4,4.6
	c0.8-0.3,1.1-0.5,2-0.5c0.6,0,1,0.2,1.5,0.2c0.5-0.1,1.4-0.7,2-0.7c1.2,0,2.3,0.4,3.5,0.8c1.4,0.1,0.7-1.5,2.3-1.2
	c0.9,0.3,0,2.1,1.2,2.1L93.6,79L53.8,72.1z"/>
<path style="fill-rule:evenodd;clip-rule:evenodd;fill:#5D5E5E;" d="M6.5,103.5c1.1,0.3,1.1,1.8,2.3,2c0-0.3,0-1.1-0.3-2.5
	c-0.2-0.8-0.8-1.9-0.8-3.1c0.6-0.2,0.9,0,1.4,0c0.3,0,0.4,0.4,0.8,0.3c0.2,0,1.2-0.3,1.7,0.6c0.9,0.2,1-0.3,1.7-0.3
	c0.4,0.4,0.5,1.2,1.1,1.4c0.5-1.6-2.1-1.3-1.4-2.3c-1.3,1-2.4-0.8-3.4,0c-0.9-0.3-0.9-1.6-2.3-1.4c-0.8,0.3-0.6,1.7-0.8,2.5
	C6,100.3,5.3,99.6,4.8,99C4.4,98.4,3.5,98,4,97.3c0.3,0.1,0.2,0.6,0.6,0.6c-0.1-1.3-0.3-2.5-0.8-3.7c-0.1-0.3-0.4-0.3-0.6-0.6
	c-0.1-0.2-0.7-1.1-0.8-1.4c-0.1-0.2,0.1-0.6,0-0.8c-0.4-0.9-1.3-1.7-1.4-2.5c-0.1-0.4,0.5-1.1,0.6-2c0-0.8-0.4-1.5-0.3-2
	c0.3-1.5,1.4-2,1.1-4.2c-0.1-1-0.6-2.4-1.1-3.4c-0.3-0.6-1.1-1.3-1.1-2c-0.2-1.9,1-3.7,2.8-4.2c-0.8-0.5,0.4-1,0.6-1.4
	c0.1-0.4-0.2-1.2,0-1.7c0.3-0.8,1.1-1.2,1.4-2c0.6-1.6-0.3-3.9,0.6-5.6c9.2,2.2,17.8,5.1,27.4,7.1c-0.7,4.8-2,9.3-3.1,13.8
	c-1.1,4.5-2.2,9-3.4,13.6c5.6,8.6,11.8,16.8,17.5,25.4c0.3,0.5,0.5,1.2,0.8,1.7c0.3,0.4,0.8,0.7,1.1,1.1c0.3,0.5,0.5,1.2,0.8,1.7
	c0.3,0.4,0.9,0.7,1.1,1.1c0.3,0.5,0.5,1.2,0.8,1.7c0.3,0.4,0.8,0.7,1.1,1.1c0.3,0.5,0.5,1.2,0.8,1.7c0.1,0.2,0.5,0.4,0.6,0.6
	c1.8,2.9,3.9,6.2,6.2,9c-0.9,1.7,1.6,3.5,0.8,5.1c0.3,0.9,1.4,0.9,1.4,2c-0.2,1-1.5,1-2,1.4c-0.4,0.4-1.1,1.1-1.4,1.7
	c-0.4,0.7-0.1,2.3-0.6,3.1c-0.1,0.2-0.4,0.4-0.6,0.6c-0.3,0.4-0.6,0.9-1.4,1.1c0.1,1.3,0.3,1.6-0.3,2.5c0,1,1.2,0.6,1.4,1.4
	c0.3,1.2-0.6,1.1-0.6,2c-5.8-0.5-13.4-1.4-20.1-2c-0.3-0.4,0.3-1.1,0.3-1.1c-0.2-0.9-0.8-0.3-0.8-0.8c-0.1-0.8,0.4-2.1,0.3-3.4
	c-0.4-3.5-3.3-4.8-4.8-7.6c-0.8-0.3-1.2-0.3-2,0c0.1-1.3-0.1-2.1-0.3-3.1c-2.2-0.6-3.5-0.6-4.8-2c-0.4-0.4-0.3-1-0.6-1.4
	c-0.8-1.3-1.8-2.3-3.7-2.3c-0.8-1.2-2.4-1.2-4-1.4c-0.6-0.1-0.8-1.4-1.7-1.4c0.9-1.2,0.6-3.5,1.4-4.8c0-1.1-1.1-1.1-1.7-1.7
	c0.1-0.5,0.6-0.7,0.6-1.4c-0.1-0.9-1-1.3-1.4-2c-0.1-0.2,0.1-0.6,0-0.8c-0.1-0.2-0.9-0.7-1.1-1.1c-0.4-0.9-0.2-1.9-0.6-2.8
	c-0.1-0.3-0.7-0.5-0.8-0.8c-0.2-0.4-0.1-0.9-0.3-1.1c-0.7-1.3-1.3-2-0.8-4.2c1,0.2,0.8-0.9,1.7-0.8c0.1-1,0-1.8-0.3-2.5
	c-0.1-0.6-1.5,0-1.7-0.6c-0.4-0.9-1.2-1.5-1.4-2.5c-0.1-0.6,0.5-0.8,0.6-1.4c0.1-0.6-0.7-1.7-0.3-2"/>
<path style="fill-rule:evenodd;clip-rule:evenodd;fill:#5D5E5E;" d="M5.1,59.4c-0.7-1.8-0.1-4.3,0.8-5.4c-1.3-2.7,1.2-3.8,1.4-5.9
	c0.6,1.1,1.1-1.7,1.4,0c1.1-0.9-0.3-1.2,0.3-2.3c0.7-0.2,0.5-1.2,1.7-0.8c0.2-0.9-0.5-0.8-0.3-1.7c1.2-1.3,1.1-4,2.5-5.1
	c-0.3-3.1,2.5-5.4,2.8-8.8c0.4-0.3,0.7-0.3,1.1,0c-0.1-0.4-0.6-0.4-0.6-0.8c0-0.5,0.4-0.5,0.6-1.1c0.1-0.5-0.1-1.1,0-1.4
	c0.3-1.1,0.9-1.9,0.8-3.1c0.9-0.3,0.2,0.9,1.1,0.6c0.7-0.8,2.3-0.1,2.3,0.8c1.4-0.3,1.9,0.3,2.5,0.8c-0.2,0.4,0.3,0.5,0.3,0.6
	c0.5,2.6-1.2,3.4,0.8,4.8c0.3,0.2,0.8,0.1,1.1,0.3c0.3,0.2,0.2,0.5,0.6,0.6c0.6,0.1,1.4,0.1,2,0c0.6-0.1,0.8-0.6,1.4-0.6
	c1.6,0,2.9,0.6,4,1.7c1.1,0.5,2.2-0.1,3.4,0c0.5,0.1,1.1,0.5,1.7,0.6c2,0.1,4-0.6,5.9-0.6c0.7,0,1.6,0.2,2.3,0.3c0.7,0,1.3-0.1,2,0
	c2,0.2,4,1,5.9,1.4c2,0.4,4,0.9,6.2,1.1c0.3,0.8,0.7,1.4,1.1,2c0.4,0.6,1.1,1,1.1,1.7c0,1-1.2,1.9-2,3.1c-0.4,0.5-0.5,1.2-0.8,1.7
	c-0.4,0.6-1.4,0.8-0.8,1.7c-1.6,1.2-3.4,2.2-3.4,5.1c0,0.9,1.1,0.5,1.4,1.1c-0.2,0.7-0.1,1.5-0.4,2.2c-0.3,0.7-0.9,1.4-1.1,2.3
	c-0.5,2.5-0.9,5.3-1.4,7.9c-0.5,2.6-1.3,5.1-1.7,7.6c-13.4-2.5-26.5-6.1-38.9-9.5C14,62.1,13.7,62,13.6,62
	C10.7,61,7.7,60.8,5.1,59.4z"/>
<path style="fill-rule:evenodd;clip-rule:evenodd;fill:#5D5E5E;" d="M31.1,8.6c0.6-0.2,0.4,0.5,0.8,0.6C31.8,9.9,30.8,9.2,31.1,8.6z
	"/>
<path style="fill-rule:evenodd;clip-rule:evenodd;fill:#5D5E5E;" d="M30.2,10c0.7,0.1,0,1.1-0.6,0.8C29.8,10.5,30.2,10.4,30.2,10z"
	/>
<path style="fill-rule:evenodd;clip-rule:evenodd;fill:#5D5E5E;" d="M19.2,21.3c0.2-1.1-0.8-1.7,0.6-1.7c-0.2-0.3-0.6-0.3-0.6-0.8
	c0.8,0,0.6,0.5,1.1,0c0.6-0.9-1.1-0.9-0.3-1.1c0-0.5-1.1,0.4-1.4-0.3c-0.1-1.3,1.6-0.9,2.3-1.4c-0.9-0.3-1.1-1.1-2-1.4
	c0.5-1.2-0.2-2.6,0-4.2c0.1-0.7,0.4-2.2,0-3.4c-0.1-0.4-0.5-0.5-0.6-0.8c-0.1-0.7-0.1-1.7,0-2.3c0,0,0.5,0.4,0.6,0.3
	c0,0-0.3-0.6-0.3-0.8c0.1-0.4,1.4-1,0.3-0.8c0.1-0.8,0.5,0.2,0.8,0.6c0.7,0.7,1.4,0.6,0.8,1.7c0.3-0.2,0.3-0.6,0.8-0.6
	C21.6,5.2,22.8,5,24,5.5C24.2,5.5,24.2,6,24.3,6c0.4,0.2,1.2,0,1.7,0.3c0.4,0.2,0.7,0.9,1.7,0.3c-0.4,1.3,1.6,0.9,0.8,1.7
	c0.4,0,0.8,0,1.1,0c0,0.6,0,1.1,0,1.7c-1.2-0.6-1.1,0.6-1.7,0c-0.7,0.1,0.4,0.5,0,1.1c-0.4,0.3-2.4,1.4-2.5,2
	c-0.1,0.5,1.1,0.7,0.3,1.1c0.6-0.4,1.6-0.3,2.3-0.6c-0.8,0.6-1.2,1.6-2.5,1.7c0.6,0.4,0.4,1.5,1.1,1.7c0.3-0.2,0.4-0.5,0.6-0.8
	c0,0.4,0.7,0.5,0.3,1.1c1-0.4,1.1-1.3,1.7-1.7c0.2-0.2,0.3,0.3,0.3,0.3c0.5-0.1,1.1-0.9,1.7-1.1c-0.2-0.5,0.3-1.2,0.3-1.7
	c0-0.3-0.2-1-0.3-0.8c0.1-0.4,0.4-0.1,0.6-0.3c0.2-0.3-0.2-0.9,0-1.1c0.2-0.4,1-0.5,1.1-1.1c0.5,0.3,1.1,0.6,0.6,1.1
	c1-0.5-0.6-1.4-0.8-2.5c-0.2-0.8,0.8-1.9-0.3-2.5c0.4-0.8,1-2.2,0.8-3.4C33,2,32.6,2.3,32.5,2.1c-0.1-0.1,0.4-0.9,0-0.3
	c-0.5-0.2-0.2-0.6,0.3-0.6c0-0.5-0.7-0.1-0.6,0c-0.7-0.3,0.3-1.2-0.3-0.6c-0.5-1.3,0.7-0.3,1.1-0.3c0.9,0.1,2.4,0.3,3.4,0.6
	c1,0.3,2,0.9,2.8,1.1c0.4,0.1,1-0.1,1.4,0c0.9,0.2,1.7,1,2.3,1.1c0.2,0,0.7-0.3,1.1-0.3c0.6,0.1,1.3,0.7,2,0.8c0.4,0.1,1-0.1,1.4,0
	c0.6,0.1,1.4,0.7,2,0.8c1.7,0.3,3.2,0.8,4.8,1.1c1.7,0.4,3.4,0.5,5.1,0.8c0.3,0.1,0.8,0.5,1.1,0.6c2.1,0.5,4.1,0.4,5.9,1.1
	c-0.5,1-0.3,1.6-0.6,3.1c0,0-0.2,1-0.3,1.1c0,0.1-0.6,0.2-0.6,0.3c0,0.2,0.3,0.7,0.3,1.1c-0.2,1.5-0.9,2.7-1.1,4.8
	c-0.4,3.4-1.7,6.9-2.3,9.9c-0.1,0.8,0,1.4-0.3,2.3c-0.1,0.2-0.6,0.9-0.6,0.8c0,0.3,0.5,0.5,0.6,0.8c0.3,1.1-0.3,1.6,0,2.3
	c-2.1,0.3-4.1-0.7-6.2-1.1c-1.2-0.3-2.8-0.2-4-0.6c-0.1,0-0.2-0.6-0.3-0.6c-0.1,0-0.5,0.3-0.8,0.3c-0.5,0-1.2-0.5-1.7-0.6
	c-0.9-0.1-1.1,0.2-2,0c-0.4-0.1-2.3-0.3-2.3-0.3c-0.2,0-0.3,0.6-0.3,0.6c-0.5,0-1-0.3-1.7-0.3c-0.6,0-3.2,0.7-3.7,0.6
	c-0.2-0.1-0.3-0.8-0.8-0.6c0.5-0.6,0-0.4,0-1.1c-0.4,0.1-0.3,0.6,0,0.6c0,0.6-0.6,0-0.6,0c-0.2,0.1-0.5,0.6-0.6,0.6
	c-0.8,0.1-1.7-0.1-2.8,0c0.2-0.8-0.6-0.6-0.6-1.1c-1.6,0.1-2.3-0.9-3.7-0.8c-0.3,0-0.7,0.5-0.8,0.6c-0.4,0.1-0.4-0.3-0.6-0.3
	c-0.7,0-1.1,0.6-1.4,0.6c-0.6-0.1-1.6-1.2-2.5-1.4c-0.1-1.7,0.4-2.8,0-4.2c0-0.2-0.1-0.7,0-0.6c-0.2-0.4-0.2,0-0.3,0
	c-1.2-0.6-0.5-1.9-2.3-1.1c0.5-0.6-0.1-0.4,0-0.3c-0.3-0.2-0.3-1-0.8-1.1c-0.2-0.1-0.7,0.1-0.8,0c-0.2-0.2-0.2-0.9-0.8-0.6"/>
<path style="fill-rule:evenodd;clip-rule:evenodd;fill:#5D5E5E;" d="M28.8,12c-0.2,0.7,0.1,1,0.8,0.8c0.4,1.2-0.9,0.8-1.1,1.4
	c-0.4-0.6-0.8-1.1-2-0.8c-0.1-1.1,1.5-0.9,0.8-1.1c0.4-0.6,0.8,0.3,1.1-0.6"/>
<path style="fill-rule:evenodd;clip-rule:evenodd;fill:#5D5E5E;" d="M28.5,11.7V12"/>
<path style="fill-rule:evenodd;clip-rule:evenodd;fill:#5D5E5E;" d="M28.5,12c0.2-0.1,0.3-0.2,0.4-0.4"/>
<path style="fill-rule:evenodd;clip-rule:evenodd;fill:#5D5E5E;" d="M28.5,12h0.3"/>
<path style="fill-rule:evenodd;clip-rule:evenodd;fill:#5D5E5E;" d="M387.5,29.2c0.5-0.1,0.4,1.3-0.3,0.8c0-0.2,0-0.4,0-0.6
	C387.5,29.5,387.5,29.4,387.5,29.2z"/>
<path style="fill-rule:evenodd;clip-rule:evenodd;fill:#5D5E5E;" d="M379,35.1c1.1,0.2,0.3,1.3-0.6,1.1
	C378.6,35.8,378.9,35.5,379,35.1z"/>
<path style="fill-rule:evenodd;clip-rule:evenodd;fill:#5D5E5E;" d="M358.9,32.5c0-0.5,0.8-0.1,1.1-0.3c0.7-0.3,0.4-1.4,1.4-1.1
	c-0.2-0.6-0.7-0.8-0.6-1.7c0.2-0.9,0.7-1.6,1.4-2c-0.7-0.8,0.3-1.1,0.3-1.7c0-1.1-0.9-2-0.8-3.1c0,0.1,0.2-1.1,0.3-1.4
	c0.1-0.2,0.5-0.2,0.6-0.6c0.1-0.9-0.4-1.9-0.3-2.8c0.1-0.8,0.6-1.2,0.8-2c0.2-0.6,0.1-1.3,0.3-2c0.2-0.5,0.4-1,0.6-1.4
	c0.1-0.4,0.4-1,0.6-1.4c0.1-0.4,0.2-1.3,0.8-1.1c0.7-0.2,0.4,0.5,0.6,0.8c0.3,0.5,0.9,0.6,1.1,1.1c1.5-0.6,2.5-1.6,3.7-2.5
	c0.5,0.1,1.3,0,2,0.3c0.2,0.1,0.3,0.7,0.6,0.8c0.2,0.2,0.9,0.1,1.1,0.3c0.2,0.3,0.5,1.5,0.8,2.5c0.6,1.9,1.1,3.9,2,6.2
	c0.3,0.7,0.8,1.7,0.8,3.1c0.5,0.6,1.7,0.6,2.8,0.6c0,1.9,0.9,2.9,1.7,4c0.3-0.3,0.6-0.6,0.8-0.8c0.7,0.2,0.8,0.9,1.4,1.1
	c0,0.6-0.8,0.4-0.6,1.1c0.2,0.6,0.9,1.2,1.1,0.3c0.6,0.6-0.8,2.6-1.7,1.7c-0.4,0.9-0.9,1.7-1.7,2.3c-0.3-0.1-0.2-0.6-0.6-0.6
	c-0.8,0.1-0.3,1.2-0.3,1.1c-0.2,0.5-1.3,0.1-0.8,1.1c-0.5-0.3-1.4-0.1-1.7-0.6c-0.5,0.8-0.6,1.5-1.4,0.6c0,0.8,0,1.5,0,2.3
	c-1.7,0.5-0.9-1.6-1.7-2c-0.8-0.5-0.4,0.8-0.6,1.1c0,0.1-0.5-0.1-0.6,0c-0.1,0.5,0.3,0.9,0.3,1.4c0,1-0.6,1.9-0.3,3.1
	c-0.6,0.6-2.4-0.2-2,1.4c-0.3,0.9-0.3-0.8-0.3-1.1c-0.9,0.4-1.6,1.7-2,0.3c-0.7,0.9,0.3,1.8-0.3,2.8c-0.4,0.2-0.2-0.8-0.3-0.8
	c-0.3-0.1-1.2,0.6-1.4,1.4c-0.1,0.5,0.1,1.2,0,1.7c-0.1,0.5-0.5,0.7-0.6,0.8c-0.1,0.5,0.4,0.6,0.3,1.1c-0.1,0.4-0.7,0.8-0.8,1.1
	c-0.3,1,0.1,2-0.3,2.3c-0.7,0.1-0.9-0.4-0.8-1.1c-1,0-1.2-0.7-1.7-1.1c0.2-1.7-1-3.1-1.4-4.5c-0.3-1-0.3-1.7-0.6-2.8
	c0-0.1-0.3,0-0.3-0.3c0-0.1,0.2-0.4,0.3-0.3c-0.1-0.4-0.7-0.6-0.8-0.8c-0.1-0.3-0.3-1.1-0.3-1.1C360.6,37.2,359.9,34.7,358.9,32.5z"
	/>
<path style="fill-rule:evenodd;clip-rule:evenodd;fill:#5D5E5E;" d="M292.5,129.2c-0.4,0.1-0.8,0.2-1.1,0.4l1-0.1
	c1.2,0.2,2-0.2,2.5-0.3c3.1-0.5,7.4-0.8,9-1.7c-0.1,0.1-0.4-0.3,0-0.3c0,0,0.5,0.5,0.8,0.6c1.1,0.1,2.9-0.1,4-0.3
	c4.2-0.6,8.1-1.7,12.1-2.3c1.2-0.2,1.6-0.4,2.3-0.6c2-0.4,3.2-0.3,4.8-0.6c3.5-0.7,7.3-1.7,10.2-2.3c0.9-0.2,1.9-0.1,2.5-0.3
	c0.2-0.1,0.3-0.5,0.6-0.6c0,0,0.3,0.3,0.6,0.3c0.5,0,0.9-0.4,1.4-0.6c0.9-0.2,1.2,0,1.7-0.6c-0.1,0.1-0.4-0.1-0.3-0.3
	c0.1-0.2,0.5,0.1,0.6-0.3c0.1-0.2-0.3-1-0.3-1.1c0,0.2-0.3,0.3-0.3,0.3c-0.1-0.6,0.6-0.7,0-1.1c-1-0.3-1.5,0.5-2,0
	c-0.1,1.2,1,0.8,1.1,1.1c-0.6,0.6-1.3-0.4-2-0.6c-0.4,0.2-0.4,0.9-1.1,0.8c-0.2-0.9-0.2-0.6,0.3-1.1c-0.9-0.7-1.5,0.5-2-0.6
	c0.3,0,0.3-0.2,0.6-0.3c-0.7,0.7,0.4,0.5,0.6,0.3c-0.4-0.2-0.9-0.4-0.8-1.1c-0.8,0-1.7,0-2.3,0c0.3,0-0.8-0.1-0.6,0
	c-0.1,0,0.1-0.6,0-0.6c-0.6-0.1-1.2,0.3-2-0.3c0.9-0.4,2.4-0.7,2.8,0c0-0.3,0-0.8,0.3-0.8c0.3,0.5,0.8,1.2,1.7,1l1,0.7
	c0.6,0.5,1,1,1.8,0.6c0.4-1.1-0.8-1.3-1.4-1.3l-0.8-0.5l-0.6-0.2c-0.5-0.9-1.7-1.1-2.3-2c0.6,0.6,0.6-0.1,1.1-0.3
	c0.3,1.1,1,0.8,1.4,1.1c-0.1-0.1-0.3,0.1-0.3,0.3c0.1,0.7,1.1-0.5,1.1,0.6c0.6-0.6-0.1-0.6-0.3-1.1c0.3,0,0.3-0.2,0.6-0.3l-0.3-0.6
	c0-0.4-0.4-0.4-0.3-0.8c-0.4,0-0.8,0-1.1,0c-0.1-1-0.9-0.8-1.4-1.1c-0.7-0.4-1.5-1.6-2-2c0.1,0.1-0.5,0.3,0-0.3
	c-1.2-0.1-0.4,0.8-0.8,0.8c-0.6-0.6,0.1-0.6,0.3-1.1c-0.5-0.2-1.2-0.1-1.4-0.6c0.4-0.4,1-0.4,1.4,0l0.3-0.1h0.2
	c0.1,0.7,1,0.5,0.8,1.4c1-0.7,0.7,0.4,1.1,0.3c0.9-0.2,0.4,0.6,1.7,1.4c-0.4-0.2,1,0.2,1.1,0.3c0.1-1.2-0.3-1.8-0.6-2.5
	c-1.7,0.4-1.8-2.5-4-1.4l-0.5,0.2c-0.1-0.7-1-0.3-0.8-1.2c-1.1,0.4-2.2,1.4-2.8,0c0.5-0.7,0.2-2.3,0.6-3.1c0.6,0.6,0.6-0.1,1.1-0.3
	c0-0.7-0.5-0.8-0.3-1.7c-0.8-0.7-1.4,0.5-1.7,0c0.3-0.1,0.4-0.3,0.6-0.6c-1.1-0.2-2.6,0-2.8-1.7c-0.1,0.4-0.3,0,0-0.3
	c-1.4,0.5,0-0.2-1.1-0.3c-0.6,0.5-0.5,1.6-1.1,2c0-0.7-0.7-0.4-1.1-0.6c0.1,0.1,0.4-0.2,0.3-0.3c-0.3-0.2-1.6-0.5-2.5-1.1
	c-0.5,0.7,0,1.8-0.3,2.8c0,0.1-0.5,0.2-0.6,0.3c-0.2,0.3-0.2,1.3-0.3,1.4c-0.2,0.3-0.9,0.3-1.1,0.6c-0.6,0.7-0.3,2-1.7,1.4
	c0,0.8,0.5,1-0.3,0.6c0.2,1.7-0.3,2.7-1.1,3.4c-1.4,0.3-1.9-0.3-2.5-0.8c-0.1,0.7,0,1.1,0.3,1.4c-1.4,0-1.1,3.1-1.1,3.1
	c0,0.1-0.5-0.1-0.6,0c-0.1,0.3,0.1,0.8,0,1.1c-0.1,0.5-0.5,0.9-0.6,1.1c0.2-0.6-0.5,0.5-0.6,0.6c-0.1,0.3-0.3,0.4-0.3,0.8
	c0,1.1,0.5,0.8,0.6,1.4c0,0-0.5,0-0.6,0c-0.2,0.3,0.2,1,0.6,1.4c-0.6-0.7-1.3,0.3-2,0.6c-0.2,0.1-0.6-0.1-0.8,0
	c-0.5,0.3-0.8,1.4-1.7,0.8c-0.4,1.3-1.2,1.2-1.7,1.4c-0.8,0.3-1.5,0.4-2.3,0c-0.1,0.8-0.9,0.8-1.1,1.4c-0.3-0.6-0.9-0.3-1.4-0.3
	c-0.8,0-0.1-0.3-0.3-0.6c0.1,0.1-1.7-0.4-1.7-1.4c-1.2-0.1-0.7,1.5-1.7,1.7l-0.6,0.6c-1,0.4-1.3,1.3-2.3,1.7c0,0.4,0.1,0.6,0.3,0.8
	c-1.7,0.2-1.1,2.2-2,2.5c0-0.3,0.2-0.3,0.3-0.6c-1.1,0.1-1,1.5-2,1.7L292.5,129.2l-0.1-0.3"/>
<path style="fill-rule:evenodd;clip-rule:evenodd;fill:#5D5E5E;" d="M344,112c-0.1-1.1,0.4-2.7,1.1-3.4c0.1-0.6-0.1-0.9-0.6-0.8
	c0.2-0.7,1-0.9,1.4-1.4c1.5,0.4-0.9,2.7,0,4c-0.5,0.5-1,1.1-1.4,1.7"/>
<path style="fill-rule:evenodd;clip-rule:evenodd;fill:#5D5E5E;" d="M245.4,138.5c0.8,0.1,0.2-1.1,0.3-1.1c0.1-0.1,0.5,0.1,0.6,0
	c0.2-0.4-0.5-1,0.3-1.4c3.7-0.1,7-0.5,10.4-0.8c-0.2-0.4,0.3-1.5-0.3-1.4c1.2-0.1,3-0.4,4.8-0.6c3.6-0.4,7.4-0.6,11.3-0.8
	c2-0.1,4.1-0.7,6.2-0.8c2.6-0.2,5.3-0.2,7.9-0.6c1.4-0.2,2.9-0.7,4.2-0.8c4.1-0.4,8.6-0.8,12.1-2c0.6,0.3-0.4,1.3,0,2.3
	c-1.2,0.3-1.4,1.4-1.7,2.5c-1.7-0.7-2.8,0.8-3.4,2c-0.8-0.1-0.4-0.8-0.8-0.8c-0.8-0.1-0.9,1.8-1.7,1.1c-0.3,0.5-0.4,1.3-0.6,2
	c-1.4-0.4-2.4,1.6-3.4,2.5c-2.4-0.1-3.8,0.9-4,3.1c-0.6,0.2-0.8,0.7-1.7,0.6c0,0.8,0,1.7,0,2.5c-7.5,0.6-14.9,1.7-22.3,2.3
	c-5.3,0.4-10.4,1.3-15.8,1.7c-2,0.1-4.1,0.2-6.2,0.3c0.1-0.6,0.8-0.6,1.1-0.8c-0.5-1.3-0.5-2,0-3.1c0,0-0.5-0.4-0.4-0.6
	c0.8-0.7,0.9-0.3,1.2-0.8c0.3-0.6-0.2-1,0-1.4c0.1-0.1,0.7-0.2,0.8-0.3c0.2-0.2,0.2-0.8,0.6-1.1c0.6-0.6-0.2-0.5-0.3-1.1
	c-0.1-0.9,1.1-1.1,0.8-2"/>
<path style="fill-rule:evenodd;clip-rule:evenodd;fill:#5D5E5E;" d="M345.4,136.8c0,0.5-0.3,0.6-0.3,1.1c-0.7,0.1-0.6-0.5-1.4-0.3
	c-0.6,0.9-1.6,1.4-3.1,1.4c-0.5,0.4-0.7,1.2-1.1,1.7c-0.1-0.3-0.2-0.9-1.1-1.1c1.2,2.6-2.4,3.1-2.3,6.2c-0.4-0.1-0.4-0.5-0.8-0.6
	c0,0.9,0.5,1.4,0.3,2.5c-1.4,0.4-3,0.5-4.2,1.1c-0.5-0.2-0.6-0.8-1.1-1.1c-0.3-0.2-1.1-0.3-1.4-0.6c-0.4-0.3-0.7-0.8-1.1-1.1
	c-0.2-0.2-0.6-0.1-0.8-0.3c-0.1-0.1-0.2-0.5-0.3-0.6c-0.3-0.2-0.6-0.1-0.8-0.3c-0.4-0.3-1.1-1-1.7-1.4c-0.9-0.6-2-1.6-2.5-1.7
	c-0.6-0.1-2.5,0.4-3.7,0.6c-1.4,0.2-2.8,0.6-4.5,0.8c-0.1-1.1-0.7-1.6-1.1-2.3c-2.9-0.7-5.2,0-7.9,0.3c-1.2,0.1-2.4,0-3.4,0.3
	c-0.4,0.1-1,0.6-1.4,0.8c-0.3,0.2-0.6,0.1-0.8,0.3c-0.4,0.3-0.6,0.5-1.4,0.8c-0.4,0.2-0.3,0-0.6,0.3c-1.1,1.1-4.9,1-7.3,1.4
	c-0.9,0.1-1.9,0.4-2.8,0.6c0-0.8,0-1.5,0-2.3c0.9,0.1,1.1-0.4,1.7-0.6c-0.2-0.9,0.5-0.8,0.3-1.7c0.7-1.1,2.3-0.9,3.7-1.7
	c0.6-0.3,1-1.1,1.7-1.7c0.4-0.3,0.5-0.6,1.4-0.6c0.5-1.1,1.3-1.9,2-2.8c0.6,0,0.4,0.8,1.1,0.6c1-0.5,1.5-2.7,3.1-1.7
	c1-0.7,0.8-2.6,2.3-2.8c0-0.9,0.5-1.4,0.3-2.5c3.2,0,5.8-0.3,9-0.8c3.7-0.6,8.2-1.4,12.7-2.3c2-0.4,4.9-1.2,7.6-1.7
	c1.7-0.3,3.5-0.5,5.1-0.8c1.5-0.3,2.4-0.8,4.2-1.1c2.2-0.4,3-0.1,4,2c-0.4-0.1-0.4-0.5-0.8-0.6c0,0.5,0.2,0.7,0.6,0.8
	c-0.7,0.8-1.3-1.2-2.3-0.3c0.1,0.7,1.3,0.2,1.1,1.1c-0.7,0.2-0.9,0.1-1.7,0.6c-0.1,0.4-0.3,0.8-0.8,1.4c-0.3-0.2-0.8-0.4-1.4-0.3
	c-0.3-0.6-0.2-1.7-0.6-2.3c-1.1,1.4,0.6,2.4,0.6,3.7c0.8,0.1,1.2-0.1,1.7-0.6c0.6-0.6,0.3,0.3,1.1,0c0.6-0.2,1.1-0.7,2-0.8
	c0.2,0.7,0.4,1.3-0.3,1.7c0.8,0.4,0,0.7,0.6,1.4c1.3-0.2,0.5-2,0.8-2.5c0.4,0,0.8,0,0.8-0.3c0.8,0.4,0.9,1.4,0.8,2.5
	c-0.3,0-0.6,0-0.8,0c-0.2,0.4-0.6,2-1.1,2.8c-0.9-0.1-2.4,0.4-2.3-0.8c-0.3,0-0.2,0.5-0.3,0.8c-1-0.1-0.6-0.9-0.8-1.1
	c-1-0.1-0.3,1.4-1.1,1.4c-1.2,0.2-2.1-0.8-2.8-0.3c0.9,1.1,3,0.9,4.5,1.4c0.2,0.8-0.6,0.5-0.8,0.8c-0.3,0.9,0.9,0.2,0.6,1.1
	c-0.5,0.3-0.9,0.6-1.1,1.1c-0.8-0.4-1.5-0.8-2.3-1.1c-0.5,0.5,0.6,1.5,1.4,1.7c1.1,0.3,2.3-0.9,3.1-0.3c-0.4-0.9,0.3-0.9,0.3-0.3"/>
<path style="fill-rule:evenodd;clip-rule:evenodd;fill:#5D5E5E;" d="M345.1,136.2l0,0.3"/>
<path style="fill-rule:evenodd;clip-rule:evenodd;fill:#5D5E5E;" d="M345.2,136.6c0.1,0,0.4-0.1,0.7-0.2"/>
<path style="fill-rule:evenodd;clip-rule:evenodd;fill:#5D5E5E;" d="M345.2,136.6l0.2,0.2"/>
<path style="fill-rule:evenodd;clip-rule:evenodd;fill:#5D5E5E;" d="M317.2,165.3c-0.3-0.1-0.5-0.2-0.6-0.6
	c-0.6,0.8,0.3,2.5,1.1,2.8c-0.1,0.4-0.3-0.1-0.6,0c-0.3,0.1-0.4,0.9-0.6,0.3c-0.7,0.1,0.4,0.5,0,1.1c-1.2,0.3-1.1-0.6-2-0.6
	c0.5-2.1-2.2-2.7-0.8-4c-1.7,1.3-0.2-0.3-1.7,0.3c-0.4-0.5-0.1-0.9-0.3-1.4c-0.2-0.6-0.6-0.7-0.8-1.1c-0.1-0.2,0.2-0.7,0.3-0.6
	c-0.2-0.3-1-0.7-1.4-1.1c-0.3-0.3-0.7,0-1.1-0.3c-0.4-0.3-0.2-1.3-1.1-0.8c0.5-0.5-0.5-0.9-0.6-1.1c0-0.2,0.4-0.3,0.3-0.6
	c-0.1-0.2-0.4,0.3-0.3,0.3c-0.1,0-0.9-1.7-0.8-0.8c0-0.2,0.4-0.5,0.6-0.6c-0.1-0.4-0.5,0-0.6,0.3c-0.3-0.5-1.2-0.2-1.7-0.6
	c-0.1-0.1-0.1-0.7-0.3-0.8c-0.2-0.2-1-1-1.4-1.4c-0.2-0.1-0.7,0.1-0.8,0c-0.9-0.5-1.1-1.7-2-2c0.3-0.9,0.1,0-0.6-0.8
	c0,0-0.6-0.6-0.6-0.6c-0.1-0.5,0.3-0.5,0.3-0.8c0-0.1-0.3,0.2-0.3,0.3c-0.1-0.7-0.4-0.7,0.3-0.8c-0.1-0.4-0.5,0-0.6,0.3
	c-0.6-0.9-2.9-0.2-2.8-1.7c-0.6,0.6-1.2,0-1.4-0.6c0.3-0.9,0.6-1.8,1.7-2c-0.7-0.7,0.8-0.6,0.8-1.4c1.7-0.3,2.2-0.1,2.3-1.1
	c0.3-0.2,0.5,0.3,0.6,0.3c0.4,0,0.1-0.5,0.3-0.6c0,0,1.2,0.4,1.1-0.6c1.5,0.1,3.2-0.4,5.1-0.6c2-0.2,4.6-0.8,5.1,0.6
	c0.3,0,0.2-0.3,0.3-0.6c1,0.3,1.2,1.4,1.4,2.5c0.5-0.2,1.3-0.5,2-0.6c0.3,0,0.6,0.3,0.6,0.3c0.3-0.1,0.7-0.5,0.8-0.6
	c0.8-0.2,2.1-0.1,3.1-0.3c0.6-0.1,1.5-0.3,2-0.3c0.4,0.1,0,0.5-0.3,0.6c0.2,0.6,0.6-0.4,1.1-0.3c0,0,0.2,0.8,0.3,0.8
	c0.2,0.1,0.6-0.1,0.8,0c0.1,0.1,0.4,0.4,0.6,0.6c0.4,0.2,0.7,0.3,0.3,0.8c1-0.3,0.5-0.3,1.7,0.6c0.3,0.2,1.1,0.5,1.1,0.6
	c0.2,0.2,0.1,0.7,0.3,0.8c0.4,0.3,1.4-0.1,0.6,0.8c0.3-0.2,0.6-0.3,1.1-0.3c0.1,0.9,1.9,0.8,1.1,1.7c0.2-0.1,0.5-0.3,0.8-0.3
	c-0.2,1-1.1,1-1.7,1.7c-0.2,0.2-0.1,0.4-0.3,0.6c-0.3,0.4-0.5,1.6-0.8,2.3c-0.1,0.1-0.4-0.2-0.3-0.3c-0.3,0.1-0.2,0.3,0,0.3
	c-0.3,0.1-1.1,1.1-1.1,0.6c-0.4,0.1,0.5,2.1-0.8,2c0.2,0.7,1.2-0.5,1.7,0.3c-0.1,0.7-0.8,0.6-1.1,0.3c0.2,0.5,0.5,1,0,0.8
	c-0.3-0.1,0,0.5,0,0.8c-0.7,0-1.9,0.2-1.1-0.6c-1.2,0.4,0.3,1.2-0.6,0.8c-0.3-0.1,0.2,0.9,0,1.1c-0.2,0.4-0.9,0.4-0.8,1.1
	c-0.8,0-0.6-1-1.7-0.6c0.2,0.8,0.5,1.3,0.8,2c-0.7-0.3-1,1.2-1.4,0.3c-0.3,0.1-0.2,0.3,0,0.3c-0.2,1.1-1.2-0.3-1.1,1.1
	c-1.4,0.5-2.7-0.4-3.1,1.1"/>
<path style="fill-rule:evenodd;clip-rule:evenodd;fill:#5D5E5E;" d="M266.9,191.6c-0.4,0-0.9,1.1-1.1,0.3c-0.8-0.2,0.2,1.3-0.6,1.1
	c-0.9-0.2-0.7-1.6-2-1.4c0.2-1.5-0.2-2.5-1.1-2.8c-0.6,0.7-0.6,2-0.6,3.4c-0.7,0-1.3,0-2,0c-0.6-2.3-0.5-4.8-0.8-7.3
	c-0.4-3.1-1.5-6-1.1-9.9c0.7-7,0.2-16.4,0.6-24.3c0.5-1.1-1.3-1.3-0.6-1.7c6.6-0.2,12.7-1,18.9-1.7c1.1,4.5,2.9,9.4,4.2,14.1
	c0.5,1.6,0.6,3.3,1.1,4.8c0.3,0.7,0.7,1.9,1.1,2.5c0.3,0.4,0.9,0.7,1.1,1.1c0.3,0.6-0.4,1.7,0.6,2c-0.5,0.9-0.6,1.5-0.8,2.8
	c-0.3,1.7-0.1,2.5,0.8,4c-0.1,0.9,0.2,2.1-0.3,2.5c0,1.2,1.1,1.4,1.1,2.5c-4.4,0.2-9.7,1.2-14.4,1.7c-2.3,0.2-5.4-0.4-6.2,1.4
	c0.2,1.3,1.3,1.7,2,2.5C266.5,190.2,267,190.3,266.9,191.6z"/>
<path style="fill-rule:evenodd;clip-rule:evenodd;fill:#5D5E5E;" d="M236.2,161.2c0-0.3-0.1-0.5-0.3-0.6c0.3-0.5,1-0.5,1.4-0.8
	c-1.1-2.3,3-3.2,2-5.4c0.4-0.6,0.8-0.6,0.8-1.1c0.1-1.3,0.3-0.8,0.8-1.7c0.1-0.2,0.4-0.4,0.3-0.8c5-0.6,10.5-0.8,15.5-1.4
	c-0.1,0.6,0.4,0.5,0.8,0.6c-0.3,7.1-0.2,14.3-0.6,21.5c-0.3,7.1,1.3,13.8,2,20.1v0.5c-0.6,0.2,0.3,0.4-0.3,0.8
	c-0.7-0.3-1.4-0.8-1.7,0c-0.8-0.2-0.9-0.6-1.7-0.6c-1.2,0-2.4,1.2-3.7,1.1c-0.5,0.3-0.6,1.1-1.1,1.4c-1.2,0.1-1-1.3-1.4-2
	c-0.2-0.8-1-1-1.4-1.7c-0.3-1.6,0.5-2.1,0.6-3.4c-4.6-0.6-9.6,0.7-14.7,0.6c-0.7-1.1-0.6-2.6,0.6-2.3c-0.3-0.4-0.2-1.3-0.3-1.4
	c-0.1-0.5,0.1-1,0.3-1.4c0,0,0.5-0.1,0.3-0.3c-0.8-0.6,1.4-1.1,0.6-2.3c0.8-0.5,1.4-1.2,2-2c-0.1-0.8,0.9-1.6-0.6-1.4
	c0.6-0.4,1-0.9,1.7-1.1c-0.1-0.8-1-0.9-1.4-1.4c0.6-0.6-0.2-0.9,0.3-1.4c-0.1-0.4-0.7-0.2-1.1-0.3c0.3-0.3,0.6-0.6,0.8-0.8
	c0-0.3-0.5-0.2-0.8-0.3c-0.1-0.9,0.4-1.2,0.8-1.4c-0.1-0.6-1.1-0.3-1.1-0.8c-0.4-1.2,1-1.1,0.6-2.5c0-0.1-0.6-0.5-0.6-0.6
	c-0.1-0.5,0.3-1,0.3-1.1c-0.3-0.8-1-0.7-0.8-1.4c0.4-0.3,0.4-1.1,1.1-1.1c0-0.3-0.5-0.2-0.8-0.3c0-0.5,0.9-0.2,0.8-0.8"/>
<path style="fill-rule:evenodd;clip-rule:evenodd;fill:#5D5E5E;" d="M323.1,199.8c0.4,0.1,0.4,0.5,0.8,0.6
	C323.8,201.1,322.9,200.4,323.1,199.8z"/>
<path style="fill-rule:evenodd;clip-rule:evenodd;fill:#5D5E5E;" d="M308.1,208.5l-0.3-0.1"/>
<path style="fill-rule:evenodd;clip-rule:evenodd;fill:#5D5E5E;" d="M307.9,209.2l0.3-0.1"/>
<path style="fill-rule:evenodd;clip-rule:evenodd;fill:#5D5E5E;" d="M307.6,209.1l0.3,0.1"/>
<path style="fill-rule:evenodd;clip-rule:evenodd;fill:#5D5E5E;" d="M307.9,208.4l-0.3,0.1"/>
<path style="fill-rule:evenodd;clip-rule:evenodd;fill:#5D5E5E;" d="M307.7,208.8c-0.2-2.4,0.9-5.4-0.1-8.2c-1-0.5-1.2-1.8-2-2.5
	c-0.7-0.4-1.4,0.6-1.4,0c-1.5-0.6-2-2.2-3.7-2.5c0.5-1.4-0.9-1.3-1.7-2c-0.4-0.4-0.4-1.1-0.8-1.4c-0.2-0.2-2.3-1-2.8-1.1
	c-0.6-0.1-1.7-0.2-2.3,0c-0.4,0.1-0.4,0.4-0.8,0.8c0,0-0.9,0.8-0.8,0.6c0,0.2,0.7,0.5,0.8,0.3c-0.4,0.4-0.9,0.3-1.4,0.6
	c-0.9,0.4-1.3,1.2-1.7,1.7c-0.4,0.4-0.6-0.6-0.6-0.6c-0.5,0.1-0.6,0.8-1.1,1.1c-0.8,0.4-1.6-0.2-2,0.6c-0.4-1.2-0.8-2.4-2.3-2.5
	c0.3-0.4,0.5,0.1,0.8-0.6c-0.7-0.6-1.5-1-2.5-1.1c0.3-0.5,0.9-0.8,1.1-1.4c0-0.9-0.9,0.5-1.1,0.6c-0.5,0.1-1.4-0.8-1.4,0.6
	c-1-0.1-1.4-0.7-2.5-0.6c1.5-1.4-1.4-1.5-2.3-1.7c-0.7,1.1-2.5,1.2-4,1.7c0-0.5-0.5-0.9-0.6-2c-0.9-0.2-0.3,1-0.6,1.1
	c-0.1,0.1-0.4-0.6-0.6-0.6c-0.6,0-0.2,0.9-0.8,1.7H268c-0.2-0.5-1.5-1.3-0.6-2c-0.4-1-1.9-0.9-2-2.3c0.4-1.7,2.2-1,3.4-1.1
	c5.2-0.8,11.6-1.4,16.9-2c0.4,0.8,0.8,1.5,1.1,2.3c7.4,0,14.8-1.4,21.5-1.1c0,0.7,0.1,1.2,0.6,1.4c2.4,0.1,0.2-3.4,1.1-4.2
	c0.8-0.4,2.2,0.7,4,0.3c0.3,0.9-0.1,2.1,1.1,2.5c0,1.8,1,3.3,1.7,4.8c1.5,3.4,3.5,6.8,6.2,9.3c-0.1,0.4-0.4-0.1-0.8,0
	c-0.2,1.3,0.5,2.5,1.1,3.7c0.5,1,1.3,2.1,2,3.1c0.5,0.7,0.8,1.3,1.4,2c0.9,0.9,1.3,3.2,2.5,4.2c0,0.4,0,0.8-0.3,0.8
	c1.5,0.6,1.8,1.1,2.5,3.4c0.5,1.6,1.1,6.8,0.6,9c-0.2,0.7-0.8,1.3-0.8,2c-0.1,0.7,0.3,1.4,0.3,2c-0.1,0.7-0.8,1-0.6,1.7
	c-1.7-0.3-2.1,1.9-3.7,0.8l-0.1-0.1l-0.1,0.1c0-0.9-0.6-1.2-1.7-1.1c-0.7-0.9-1.5-1.8-2.3-2.8c-0.6-0.8-0.6-1.4-1.7-1.7
	c-0.8-0.2-1.6,0.2-2.3-0.3c-0.6-1-1.3-1.9-1.4-3.4c-0.1-0.6-0.8-0.6-1.1-0.8c0.1-1.1,0.7-1.6,1.1-2.3c-1.4-0.2-1.2,1.1-1.7,1.7
	c-0.9-0.4-1.1-2.7-0.6-3.7c-0.4-0.5-1.2,0.7-2,0c-0.8,0.4,0.9,0.6,0.6,1.4c-2-0.4-2.7-2.2-3.4-4c-0.2-0.9-1.3-0.7-1.4-1.7
	c1,0.1,0.6-1.2,0.8-1.7c0.2-0.5,1.1-0.8,0.8-1.4c-0.4-1.5-1.4-0.6-2.7-1.4l-0.1,0.3c0.5,0.1,0,1.3,1.1,0.8c-0.2,0.3-0.3,0.6-0.3,1.1
	c-1.1,0.3-0.8-0.7-1.7-0.6c-0.2-0.8,0.4-0.7,0.3-1.4L307.7,208.8z"/>
<path style="fill-rule:evenodd;clip-rule:evenodd;fill:#5D5E5E;" d="M235.8,170.1c0.7,0.1-0.1,0.6,0,1.1c0.1,0.4,0.6,0.8,0.6,0.8
	c0,0.3-0.6,0.5-0.6,0.8c0.1,0.3,0.5,0.4,0.6,0.6c0.1,0.2-0.1,0.6,0,0.8c0.3,0.5,0.7,0.9,1.1,1.4c-0.2,0.7-1.3,0.6-1.4,1.4
	c0.2,0.3,0.5,0.4,0.8,0.6c-0.1,0.3-1.6,0.8-0.3,0.8c-0.5,0.8-1.2,1.4-2,2c0.5,1.1-1.2,2.3-1.1,2.8c0.1,0.5,0.3,0.6,0.3,1.1
	c0,0-0.5,0-0.6,0c-0.3,0.3,0.5,0.8,0.3,1.1c-0.2,0.1-0.5,0.3-0.8,0.3c0.3,0.9,0.8,2.2,0,2.8c5.1-0.5,10.5-0.6,15.5-1.1
	c-0.4,0.7-0.4,1.9-0.8,2.5c0.6,1.8,1.7,2.7,2.5,4.5c-0.3,1-0.8-0.1-1.4-0.3c-0.4-0.1-1,0.2-1.4,0c-0.3-0.1-1-1.4-2-1.1
	c-1,0.6-1.8,1.4-2,2.8c1.3,1.5,4.7-0.2,5.4-0.3c1,0.5-0.7,0.6-0.6,1.1c0.4,0.7,1.3,0.8,2,1.1c0.8-0.2,0.2-1.9,1.4-1.7
	c-0.3,1.2,0.6,1.1,0.6,2c-1.3-0.1-1.9,0.5-1.4,1.4c-1.4-0.1-0.2,0.5-1.1,0.8c-0.3,1,1.2,0.7,1.7,1.1c0.2,0.1,0.1,0.8,0.3,0.8
	c0.1,0.1,0.5-0.4,0.8-0.3c0.2,0.1,0.6,1,1.7,0.6c0.5,0.7,1.2,1.2,0.6,2.3c-0.7-0.2-1-0.7-1.4-1.1c-0.3,0.2-0.3,0.6-0.8,0.6
	c0-0.5-0.3-0.6-0.3-1.1c-0.9,0.4-1.3-0.4-1.7-0.6c-0.2-0.1-0.7,0.1-0.8,0c-0.2-0.1-0.1-0.7-0.3-0.8c-0.4-0.4-0.9,0.1-1.7-0.3
	c-0.5-0.2-1.1-1-2-0.8c-0.3,1.4,1.1,1,1.4,1.7c0.5,0.7-0.5,0.8-0.6,0.8c-0.1,0.4,0.9,1.5-0.3,1.7c-0.9,0.3-0.4-0.9-0.6-1.4
	c-0.3-0.2-1.2,0.2-1.4,0c-0.3-0.3,0.2-0.7-0.8-0.3c-0.7,0.3-1.2,0.7-1.4,2c-0.8,0-2.5-1-3.1-0.6c-0.2-1.4-1.8-1.6-1.4-3.7
	c-0.6-0.1-0.5,0.4-0.6,0.8c-0.9,0.1-1-0.5-2-0.3c-0.2-1.2-0.9-1.9-2.5-1.7c0-0.3,0-0.6,0-0.8c-1,0.3-1.7,0.9-2.8,1.1
	c-0.8,0.4,0.9,0.6,0.6,1.4c-0.6-0.4-0.9,0.5-1.4,0.6c-0.5,0-1.5-0.5-2.3-0.6c-1.3-0.2-2-0.4-3.4-0.8c-0.8-0.3-1.3-0.8-2.3-0.6
	c0.6-1.1,0-2.2-0.6-2.8c-0.1,0.7-1,2.2-0.6,2.5c-0.6,0.9-2.6,0.4-3.7,0.8c-0.4-0.6,0.6-0.6,0.8-1.1c0.2-0.4-0.1-1,0-1.4
	c0.1-0.3,0.5-0.5,0.6-0.8c0.1-0.8-0.5-1.2-0.6-2c0-0.5,0.2-1.8,0.3-2.3c0.2-0.6,1-1.2,1.1-2c0.3-1.3,0.2-3.3,0-4
	c-0.1-0.4-0.9-0.8-1.1-1.1c-0.3-0.6-0.1-2.1-1.1-2.3c0.3-2.4-1.1-3-2-4.2c0.2-3.3-0.3-5.9-0.3-9c5.2-0.1,11-0.6,16.4-0.8
	c1.8-0.1,3.7-0.1,5.4,0C234.8,170.9,235.3,170.7,235.8,170.1z"/>
<path style="fill-rule:evenodd;clip-rule:evenodd;fill:#5D5E5E;" d="M232.7,202.3c-0.6,0.6-0.8-0.4-1.7-0.3
	C231.3,201.4,232.8,201.3,232.7,202.3z"/>
<path style="fill-rule:evenodd;clip-rule:evenodd;fill:#5D5E5E;" d="M237.2,203.7c0.3,0.1,0.2,0.6,0.6,0.6
	C237.6,205.1,236.6,204.1,237.2,203.7z"/>
<path style="fill-rule:evenodd;clip-rule:evenodd;fill:#5D5E5E;" d="M189,219c-0.9-0.4-2.3-0.4-3.1,0c0.3,0.7,0.8,0.3,1.1,0.6
	c0.3,0.2,0.5,0.6,0.8,1.1c-0.1,1.2-0.9,1.6-0.8,2.8c-1.7,0.4-2.1-0.5-3.1-0.8c0,0.9,0.8,0.9,0.6,2c1,0.1,1.4,0.4,2.3,0
	c-0.4,0.8-0.3,1.9-1.1,2.3c-0.6,1.3,0.6,1.7,0.8,2.5c0.2,0.8,0.1,1.8,0.3,2.5c0.2,0.7,0.7,1.1,0.8,1.7c0.3,1-0.2,2.2,0.6,2.8
	c0.1,0.7-1.3-0.2-0.8,0.8c-1.4,0-1.8-1.6-3.1-2c-1.2-0.3-2.5,0.2-4.2,0c-1-0.8-1.7-1.9-3.7-1.7c-0.4-1.1-1.6-1.4-3.1-1.4
	c-0.3-0.1-0.1-0.6-0.3-0.8c0-0.1-0.6-0.3-0.6-0.3c-0.2-0.6-0.1-1.4-0.3-2c-0.4-1.3-1.2-2.2-2-3.1c-0.2-0.6,0.3-0.8,0.3-1.1
	c0-0.6-0.5-0.7-0.6-1.1c-0.1-0.7,0.4-1.4,0-2.3c-0.3-0.8-1.2-1.1-2-1.4c-0.7-1.6-1.9-2.7-2.5-4.2c-0.3-0.5-1-0.5-1.4-0.8
	c-0.2-0.6-0.4-1.1-0.6-2.3c0,0-0.1-0.8-0.6-1.4c-0.1-0.1-0.5-0.2-0.6-0.3c-0.1-0.2,0.1-0.4,0-0.6c-0.3-0.5-0.4-0.9-0.8-1.4
	c-0.2-0.2-0.3-1.3-0.6-2c-0.5-1.3-1.6-2-2.5-3.1c-0.4-0.5-1.2-1.4-2-2c-0.1-0.1-0.4-0.1-0.3,0c-0.9-1-1-1.5-1.7-2.3
	c-1.2,0.3-3,0.2-4.8-0.3c-1-0.2-2.1-1.3-2.8,0.3c-0.9-0.4-2,0.2-2.5,0.8c-0.4,0.6-0.9,1.9-1.4,3.1c-0.5,1-1.6,2.1-2.5,2.8
	c-1.6,0-2.8-1.2-4-2c-0.4-0.3-0.6-0.7-0.8-0.8c-0.6-0.3-1.4-0.2-2-0.6c-1.2-0.8-1.8-2.6-3.4-2.8c0-1.6-1.9-2.4-1.4-4.5
	c0.2-0.7,0.2-1.2-0.3-2.3c-0.1-0.1-0.2-0.6-0.3-0.8c-0.1-0.1-0.5-0.2-0.6-0.3c-0.1-0.3,0.2-0.8,0-1.1c-0.3-0.5-0.5-0.8-0.8-1.1
	c-0.4-0.5-0.9-1-1.4-1.4c-0.4-0.3-1.2-0.4-1.7-0.8c-0.3-0.3-0.5-1-0.8-1.4c-0.3-0.5-0.8-0.7-1.1-1.1c-1.2-1.5-2-2.9-4-3.7
	c0-0.8-0.5-1.2-0.6-2c-0.7-1.1-2.5-1.1-2.3-3.1c8.9,1,18,1.8,27.4,2.3c0.4-0.1,0.4-0.5,0.8-0.6c0.8-14,1.9-27.7,2.8-41.5
	c7.2,0.6,14.8,0.6,22,1.1c0,6.1-0.1,12.2-0.6,17.8c1.3,0.3,1.9,1.3,2.8,2c1.4,0.2,2.3-0.4,3.1,0c0.5,0.4,0.1,1.6,0.6,2
	c2.2,0.1,4.1,0.4,5.4,1.4c1.1-0.7,1.2-0.8,2.8-0.6c-0.1,0.9,0.2,1.3,1.1,1.1c-0.1,0.7,0,1.1,0.3,1.4c1,0,1.3-0.8,2-1.1
	c0.7,0.3,1.2,0.7,1.4,1.4c0.8,0.1,1.4-0.1,1.7-0.6c0.6,0.1,0,1.5,0.8,1.4c0.6,0,0.8-0.9,1.1-1.4c0.1-0.1,0.4-0.2,0.3-0.6
	c1.1,0.4,1.4,1.2,2.8,0.6c0.4,0.9,1.6,1,2.3,1.7c0.5-0.6,1.4-0.8,2-1.4c0.8-0.3,0.9-0.3,1.7,0c0.7-0.1,1.2-0.5,1.7-0.8
	c0.5,0.3,2.2,1.2,2.8,0c1.2-0.4,2.1,1.3,2.8,1.7c0.2,0.1,0.6-0.1,0.8,0c0.1,0.1,0.2,0.5,0.3,0.6c0.9,0.3,2.2-0.1,2.5,1.1
	c0.8-0.3,1.7-0.3,2.5,0c0.4,4.6,0.4,9.6,0.6,14.4c0.4,0.7,1.1,1.1,1.7,1.7c-0.1,0.9,0.6,1.1,0,1.7c0.2,0.3,0.3,0.7,0.6,1.1
	c0.2,0.3,0.7,0.6,0.8,0.8c0.1,0.2-0.1,0.6,0,0.8c0.5,0.9,1.3,1.1,1.1,2.8c0,0-0.3,0-0.3,0.3c0,0.2,0.3,1,0.3,1.7
	c-1.3,1.4-1.7,4.5-0.8,6.5c-0.6,1-2.9,2.3-1.4,3.7c-0.7,0.4-1.3,0.3-2,0.6c-0.8,0.3-1.4,1-2,1.1c-0.5,0.1-0.5-0.3-0.8-0.3
	c-0.3,0-1.3,0.4-2,0.3c0.4-0.4,0.3-1.2,0.3-2c-1-0.8-1.2,0.7-1.7,0.8c-0.6,0.1-0.6-1.1-1.1-0.3c0,1.5,0.6,2.1,1.1,3.7
	c-0.9,0.2-1,1.3-2,1.4c-0.1,2.5-2.5,2.5-3.7,4c-1.1-0.2-1.3,0.3-2.3,0.3c-0.4,0.1-0.2,0.7-0.3,1.1c-0.6,0.1-0.4-0.5-0.8-0.6
	c0.2,0-1.1,0.6-1.4,0.3c-0.1-0.1,0.1-0.5,0-0.6c-0.5-0.2-1.6,0.9-1.7-0.6c-0.8,0.2,0.2,0.9,0,1.4c-1.2,0.2-0.7-1.4-2-1.1
	c-0.7,0.6,1.6,1.8,0.6,2.8c0.3-0.2,0.6-0.3,1.1-0.3c-0.8,1.3-2,1.1-2.8,0c-0.6,0.8,0.5,1.9-0.6,2.5c-0.4-1.2-1.9,0.9-2.8,0
	c0.3,0.9-0.3,1.6,0.8,2c-0.1-0.5,0.3-0.5,0.3-0.8C190.5,217.6,188.8,218.1,189,219z"/>
</svg>
